<svg width="32" height="16" viewBox="0 0 32 16" fill="none" xmlns="http://www.w3.org/2000/svg">
<path d="M17.4583 7.13333C16.7583 7.13333 16.1167 6.28333 15.1167 6.05833L18.475 1.66667C19.525 0.283333 21.0917 0.291666 22.1417 1.65833L25.5 6.05833C24.4833 6.275 23.8583 7.13333 23.1583 7.13333C22.35 7.13333 21.65 5.98333 20.3083 5.98333C19 5.98333 18.275 7.13333 17.4583 7.13333ZM6.89167 9.20833C6.25833 9.20833 5.79167 8.5 4.925 8.35833L7.49167 5.125C8.55833 3.76667 10.0667 3.75833 11.1333 5.125L12.7583 7.15833L11.4 8.925C11.3417 8.96667 11.2917 8.98333 11.2333 8.98333C10.9 8.98333 10.2583 8.25 9.325 8.25C8.2 8.25 7.6 9.20833 6.89167 9.20833ZM11.4333 15.7C9.60833 15.7 9.125 13.9167 10.05 12.7083L14.0333 7.48333C14.25 7.33333 14.4167 7.26667 14.6167 7.26667C15.325 7.26667 15.9667 8.39167 17.4583 8.39167C18.975 8.39167 19.575 7.24167 20.3083 7.24167C21.0417 7.24167 21.6417 8.39167 23.1583 8.39167C24.625 8.39167 25.2333 7.325 25.8917 7.275C26.1083 7.275 26.3333 7.49167 26.6917 7.625L30.5667 12.7C31.4917 13.9083 31.0083 15.7 29.175 15.7H11.4333ZM2.70833 15.7C1.05 15.7 0.483333 13.9833 1.45 12.75L3.825 9.775C4.1 9.525 4.325 9.40833 4.56667 9.40833C5.19167 9.40833 5.675 10.2917 6.89167 10.2917C8.2 10.2917 8.70833 9.33333 9.325 9.33333C9.76667 9.33333 10.0583 9.75833 10.6417 9.93333L9.09167 11.9667C8.18333 13.1667 8.175 14.6667 8.90833 15.7H2.70833Z" fill="#222222"/>
</svg>
