<svg width="32" height="32" viewBox="0 0 32 32" fill="none" xmlns="http://www.w3.org/2000/svg">
<path d="M15.4866 2.49538C11.9892 3.97035 3.66393 7.62905 3.5322 7.75037C3.2424 8.00578 3.19629 8.26118 3.23581 9.22534C3.24898 9.70423 3.2885 10.1384 3.30826 10.1895C3.33461 10.2406 6.19313 11.6645 9.67077 13.3502L15.9938 16.415L22.3168 13.3502C29.6014 9.81916 28.7715 10.3683 28.7715 9.11041C28.7715 8.2548 28.6924 7.94831 28.4092 7.70567C28.2841 7.60351 25.7944 6.49249 22.2443 4.96644C15.8818 2.22082 16.0135 2.2719 15.4866 2.49538Z" fill="#222222"/>
<path d="M22.3557 15.0234C16.6848 17.7691 16.0788 18.05 15.8746 18.0117C15.7495 17.9862 12.8844 16.6325 9.51871 14.9979C2.56342 11.6329 3.21548 11.8628 3.21548 12.7503C3.21548 13.127 3.24182 13.2675 3.33403 13.3697C3.48552 13.5421 15.7692 19.5122 15.9668 19.5122C16.0525 19.5122 18.9242 18.1522 22.3557 16.492C27.6578 13.9252 28.5997 13.4527 28.6853 13.2931C28.7972 13.0887 28.7841 12.1565 28.6721 12.0479C28.6326 12.0096 26.3537 13.0823 22.3557 15.0234Z" fill="#222222"/>
<path d="M3.43976 15.4127C3.22899 15.5468 3.21582 15.732 3.21582 19.5759C3.21582 22.2002 3.24217 23.5028 3.28827 23.7007C3.33438 23.8603 3.46611 24.0902 3.60442 24.237C3.82177 24.4669 4.40797 24.7351 9.76934 27.0465C14.7158 29.1792 15.7432 29.6006 15.9935 29.6006C16.2306 29.6006 16.7707 29.3963 18.8257 28.5151C20.255 27.9021 21.4142 27.3722 21.4735 27.2955C21.5788 27.1742 21.592 26.9699 21.592 25.0863C21.592 23.7518 21.6184 22.9728 21.6645 22.8898C21.7369 22.7493 24.2925 21.4914 24.4966 21.4914C24.5625 21.4914 24.6811 21.5489 24.7535 21.6191C24.8787 21.7404 24.8852 21.8298 24.8852 23.4964C24.8852 24.4925 24.9116 25.3225 24.9511 25.4183C25.0894 25.7631 25.2475 25.7439 26.4594 25.2331C27.9809 24.5818 28.1982 24.4669 28.4288 24.1987C28.5407 24.071 28.6593 23.8412 28.6988 23.6879C28.791 23.3367 28.7976 15.8278 28.7054 15.5915C28.5539 15.202 28.712 15.1318 22.2704 18.2541C17.3438 20.6422 16.2109 21.1722 15.9935 21.1722C15.7762 21.1722 14.6433 20.6486 9.73641 18.2669C6.44318 16.6706 3.69004 15.3617 3.63077 15.3617C3.5649 15.3617 3.47928 15.3872 3.43976 15.4127Z" fill="#222222"/>
</svg>
