<svg width="12" height="8" viewBox="0 0 12 8" fill="none" xmlns="http://www.w3.org/2000/svg">
<path d="M6 7.05078C5.75977 7.05078 5.56055 6.95703 5.36719 6.76953L0.960938 2.25781C0.814453 2.10547 0.732422 1.92383 0.732422 1.70703C0.732422 1.26758 1.08398 0.910156 1.51758 0.910156C1.74023 0.910156 1.93945 1.00391 2.09766 1.16211L6.00586 5.16992L9.90234 1.16211C10.0605 1.00391 10.2656 0.910156 10.4766 0.910156C10.916 0.910156 11.2676 1.26758 11.2676 1.70703C11.2676 1.92383 11.1914 2.10547 11.0391 2.25781L6.63281 6.76367C6.44531 6.95703 6.24023 7.05078 6 7.05078Z" fill="#222222" fill-opacity="0.5"/>
</svg>
