<svg width="160" height="160" viewBox="0 0 160 160" fill="none" xmlns="http://www.w3.org/2000/svg">
<g clip-path="url(#clip0_149_150684)">
<path d="M89.863 152.382C90.3684 152.373 90.8705 152.466 91.3398 152.654C91.8092 152.841 92.2365 153.121 92.5969 153.475C92.9572 153.83 93.2434 154.252 93.4387 154.719C93.6341 155.185 93.7347 155.685 93.7347 156.191C93.7347 156.697 93.6341 157.197 93.4387 157.663C93.2434 158.13 92.9572 158.552 92.5969 158.907C92.2365 159.261 91.8092 159.541 91.3398 159.728C90.8705 159.916 90.3684 160.009 89.863 160.001C88.8633 159.984 87.9101 159.576 87.2089 158.863C86.5077 158.151 86.1147 157.191 86.1147 156.191C86.1147 155.191 86.5077 154.232 87.2089 153.519C87.9101 152.806 88.8633 152.398 89.863 152.382ZM66.126 155.172C66.2531 154.686 66.4751 154.23 66.7791 153.83C67.0831 153.43 67.4632 153.094 67.8974 152.842C68.3316 152.59 68.8115 152.426 69.3093 152.359C69.8072 152.293 70.3133 152.326 70.7984 152.456C71.2835 152.586 71.7381 152.811 72.1361 153.117C72.5341 153.423 72.8675 153.806 73.1173 154.241C73.3671 154.677 73.5282 155.158 73.5915 155.656C73.6548 156.154 73.6189 156.66 73.486 157.145C73.2163 158.111 72.576 158.933 71.7042 159.43C70.8324 159.928 69.7995 160.061 68.83 159.801C67.8604 159.541 67.0325 158.91 66.5262 158.043C66.0199 157.176 65.8761 156.144 66.126 155.172ZM112.925 150.046C113.06 150.531 113.098 151.038 113.036 151.537C112.974 152.037 112.814 152.52 112.564 152.957C112.315 153.395 111.981 153.778 111.582 154.086C111.183 154.393 110.728 154.619 110.241 154.749C109.755 154.88 109.247 154.912 108.748 154.845C108.249 154.778 107.768 154.613 107.333 154.359C106.898 154.105 106.518 153.767 106.215 153.365C105.911 152.963 105.69 152.505 105.565 152.018C105.315 151.045 105.459 150.014 105.965 149.147C106.472 148.28 107.299 147.649 108.269 147.389C109.239 147.129 110.271 147.262 111.143 147.76C112.015 148.257 112.655 149.079 112.925 150.046ZM52.345 147.637C52.7866 147.882 53.175 148.213 53.4874 148.611C53.7998 149.008 54.0301 149.464 54.1648 149.951C54.2994 150.438 54.3358 150.947 54.2718 151.448C54.2078 151.95 54.0446 152.433 53.7919 152.871C53.5391 153.309 53.2018 153.692 52.7996 153.998C52.3974 154.304 51.9382 154.527 51.449 154.654C50.9597 154.781 50.4501 154.809 49.9498 154.737C49.4496 154.665 48.9686 154.494 48.535 154.234C47.6771 153.721 47.0555 152.89 46.8045 151.922C46.5534 150.954 46.693 149.927 47.193 149.061C47.6931 148.195 48.5136 147.56 49.4774 147.294C50.4412 147.027 51.4712 147.15 52.345 147.637ZM81.122 143.264C81.5577 143.31 81.9798 143.442 82.3637 143.653C82.7477 143.864 83.0858 144.15 83.3584 144.493C83.6309 144.836 83.8325 145.23 83.9514 145.651C84.0702 146.073 84.1039 146.514 84.0506 146.949C83.9972 147.384 83.8579 147.804 83.6406 148.184C83.4234 148.565 83.1326 148.898 82.7852 149.165C82.4378 149.432 82.0407 149.627 81.6171 149.739C81.1936 149.851 80.7519 149.878 80.318 149.818C79.4598 149.698 78.6829 149.246 78.155 148.559C77.627 147.872 77.3902 147.005 77.4957 146.145C77.6012 145.285 78.0405 144.501 78.7189 143.962C79.3973 143.423 80.2604 143.172 81.122 143.264ZM64.438 141.365C64.8478 141.526 65.2216 141.767 65.5378 142.074C65.8539 142.381 66.1062 142.748 66.28 143.153C66.4539 143.557 66.5459 143.993 66.5506 144.433C66.5554 144.874 66.4729 145.311 66.3079 145.72C66.1429 146.128 65.8987 146.5 65.5893 146.814C65.2798 147.127 64.9114 147.377 64.5051 147.547C64.0989 147.718 63.6629 147.806 63.2223 147.808C62.7817 147.809 62.3452 147.723 61.938 147.555C61.1241 147.218 60.4761 146.574 60.1351 145.762C59.7942 144.95 59.7879 144.036 60.1177 143.219C60.4475 142.403 61.0866 141.75 61.8959 141.402C62.7051 141.055 63.6188 141.041 64.438 141.365ZM101.339 143.747C101.408 144.185 101.389 144.632 101.283 145.062C101.178 145.492 100.988 145.897 100.724 146.253C100.46 146.609 100.129 146.909 99.748 147.136C99.3673 147.362 98.9453 147.51 98.5067 147.572C98.068 147.634 97.6215 147.608 97.1931 147.495C96.7647 147.382 96.363 147.186 96.0114 146.916C95.6597 146.647 95.3653 146.31 95.1451 145.926C94.9249 145.541 94.7835 145.117 94.729 144.678C94.6212 143.808 94.8593 142.932 95.392 142.236C95.9247 141.541 96.7093 141.083 97.5765 140.961C98.4438 140.839 99.3243 141.063 100.028 141.584C100.732 142.105 101.203 142.882 101.339 143.747ZM129.93 139.127C130.19 139.56 130.36 140.041 130.432 140.541C130.504 141.042 130.476 141.551 130.349 142.041C130.222 142.53 129.999 142.989 129.693 143.391C129.387 143.793 129.004 144.131 128.567 144.383C128.129 144.636 127.645 144.799 127.144 144.863C126.642 144.927 126.133 144.891 125.646 144.756C125.159 144.622 124.704 144.391 124.306 144.079C123.909 143.767 123.578 143.378 123.332 142.937C122.846 142.063 122.723 141.033 122.989 140.069C123.255 139.105 123.89 138.285 124.756 137.785C125.622 137.285 126.65 137.145 127.618 137.396C128.586 137.647 129.416 138.269 129.93 139.127ZM35.78 138.186C36.1458 138.536 36.4379 138.957 36.6391 139.422C36.8404 139.888 36.9468 140.388 36.952 140.895C36.9573 141.402 36.8613 141.905 36.6697 142.375C36.4781 142.844 36.1948 143.27 35.8363 143.629C35.4778 143.987 35.0514 144.271 34.582 144.462C34.1126 144.654 33.6097 144.75 33.1028 144.745C32.5959 144.739 32.0951 144.633 31.6297 144.432C31.1644 144.23 30.744 143.938 30.393 143.573C29.6969 142.854 29.3112 141.891 29.319 140.891C29.3269 139.891 29.7278 138.934 30.4351 138.227C31.1424 137.519 32.0994 137.119 33.0996 137.111C34.0998 137.103 35.0629 137.489 35.781 138.186H35.78ZM88.327 137.7C89.1289 137.7 89.8979 138.018 90.4649 138.585C91.0319 139.152 91.3505 139.921 91.3505 140.723C91.3505 141.525 91.0319 142.294 90.4649 142.861C89.8979 143.428 89.1289 143.747 88.327 143.747C87.5251 143.747 86.7561 143.428 86.189 142.861C85.622 142.294 85.3035 141.525 85.3035 140.723C85.3035 139.921 85.622 139.152 86.189 138.585C86.7561 138.018 87.5251 137.7 88.327 137.7ZM73.191 137.777C73.9655 137.984 74.6259 138.491 75.0269 139.185C75.4278 139.88 75.5365 140.705 75.329 141.48C75.1214 142.254 74.6147 142.914 73.9203 143.315C73.2258 143.716 72.4005 143.825 71.626 143.618C70.8515 143.41 70.1913 142.903 69.7904 142.209C69.3895 141.515 69.2809 140.689 69.4885 139.915C69.696 139.141 70.2027 138.48 70.897 138.079C71.5914 137.679 72.4165 137.569 73.191 137.777ZM48.913 135.185C49.2714 135.445 49.5744 135.774 49.8043 136.153C50.0341 136.532 50.1862 136.953 50.2516 137.391C50.3171 137.83 50.2946 138.277 50.1855 138.706C50.0764 139.136 49.8828 139.539 49.6161 139.893C49.3494 140.247 49.0149 140.544 48.6321 140.768C48.2493 140.991 47.8259 141.136 47.3865 141.194C46.9471 141.252 46.5006 141.222 46.073 141.105C45.6454 140.989 45.2453 140.788 44.896 140.516C44.206 139.977 43.7553 139.189 43.6409 138.321C43.5264 137.453 43.7575 136.575 44.2843 135.876C44.8111 135.177 45.5915 134.712 46.4572 134.583C47.323 134.454 48.2049 134.67 48.913 135.185ZM117.294 136.068C117.468 136.471 117.56 136.906 117.566 137.345C117.571 137.785 117.49 138.222 117.326 138.63C117.162 139.038 116.92 139.41 116.612 139.724C116.304 140.038 115.937 140.288 115.532 140.46C115.128 140.631 114.693 140.722 114.253 140.725C113.813 140.728 113.377 140.645 112.97 140.479C112.563 140.313 112.192 140.069 111.88 139.759C111.567 139.45 111.319 139.082 111.149 138.676C110.808 137.863 110.803 136.947 111.136 136.129C111.468 135.312 112.111 134.659 112.923 134.315C113.736 133.97 114.651 133.96 115.47 134.289C116.289 134.617 116.945 135.257 117.294 136.068ZM106.63 135.846C106.733 136.229 106.759 136.629 106.707 137.023C106.655 137.416 106.526 137.796 106.328 138.14C106.129 138.484 105.865 138.785 105.55 139.027C105.235 139.268 104.875 139.446 104.492 139.549C104.108 139.651 103.708 139.677 103.315 139.626C102.921 139.574 102.542 139.445 102.198 139.246C101.854 139.048 101.552 138.784 101.311 138.469C101.069 138.154 100.892 137.794 100.789 137.411C100.581 136.636 100.69 135.811 101.091 135.117C101.492 134.422 102.152 133.916 102.926 133.708C103.701 133.5 104.526 133.609 105.22 134.01C105.915 134.411 106.422 135.071 106.63 135.846ZM58.551 133.934C59.2454 134.334 59.7522 134.995 59.9598 135.769C60.1674 136.544 60.0588 137.369 59.658 138.064C59.2571 138.758 58.5968 139.265 57.8222 139.472C57.0477 139.68 56.2224 139.571 55.528 139.171C55.1841 138.972 54.8827 138.708 54.641 138.393C54.3992 138.078 54.2219 137.718 54.1191 137.335C54.0163 136.951 53.9901 136.551 54.0419 136.158C54.0937 135.764 54.2225 135.384 54.421 135.04C54.6195 134.697 54.8837 134.395 55.1987 134.154C55.5137 133.912 55.8732 133.734 56.2567 133.632C56.6402 133.529 57.0402 133.503 57.4339 133.554C57.8275 133.606 58.2071 133.735 58.551 133.934ZM80.885 130.464C81.2265 130.505 81.5564 130.614 81.8558 130.784C82.1553 130.953 82.4184 131.18 82.6302 131.451C82.842 131.722 82.9984 132.032 83.0903 132.364C83.1822 132.696 83.2079 133.042 83.166 133.383C83.124 133.725 83.0152 134.055 82.8457 134.354C82.6763 134.654 82.4495 134.917 82.1784 135.129C81.9072 135.341 81.597 135.497 81.2655 135.589C80.9339 135.681 80.5875 135.706 80.246 135.665C79.5561 135.58 78.9282 135.224 78.5004 134.677C78.0725 134.129 77.8797 133.434 77.9645 132.744C78.0492 132.054 78.4045 131.426 78.9522 130.998C79.4999 130.571 80.1951 130.379 80.885 130.464ZM67.644 128.956C67.976 129.08 68.2799 129.269 68.5377 129.512C68.7955 129.755 69.002 130.047 69.145 130.371C69.2879 130.695 69.3644 131.045 69.3699 131.399C69.3755 131.753 69.31 132.105 69.1772 132.433C69.0445 132.762 68.8473 133.06 68.5972 133.311C68.3471 133.562 68.0493 133.76 67.7213 133.894C67.3933 134.028 67.0418 134.094 66.6875 134.09C66.3333 134.086 65.9836 134.01 65.659 133.868C65.0267 133.592 64.5272 133.08 64.2666 132.441C64.006 131.802 64.0048 131.087 64.2633 130.447C64.5218 129.808 65.0197 129.294 65.651 129.016C66.2823 128.737 66.9973 128.716 67.644 128.956ZM96.93 130.848C96.9901 131.197 96.9793 131.555 96.8984 131.901C96.8174 132.246 96.6679 132.572 96.4587 132.859C96.2495 133.145 95.9849 133.387 95.6805 133.569C95.3762 133.752 95.0383 133.871 94.6869 133.921C94.3355 133.97 93.9778 133.948 93.635 133.857C93.2922 133.765 92.9712 133.606 92.6911 133.388C92.4111 133.17 92.1776 132.898 92.0046 132.588C91.8316 132.279 91.7226 131.937 91.684 131.585C91.6091 130.9 91.8037 130.213 92.2266 129.669C92.6495 129.126 93.2675 128.768 93.9496 128.672C94.6317 128.576 95.3242 128.75 95.8806 129.156C96.4369 129.562 96.8133 130.169 96.93 130.848ZM120.126 127.18C120.325 127.523 120.453 127.903 120.505 128.296C120.557 128.69 120.531 129.09 120.428 129.474C120.326 129.857 120.148 130.217 119.907 130.532C119.665 130.847 119.364 131.111 119.02 131.31C118.676 131.508 118.297 131.637 117.903 131.689C117.509 131.741 117.109 131.715 116.726 131.612C116.342 131.509 115.983 131.332 115.668 131.09C115.353 130.849 115.089 130.547 114.89 130.204C114.489 129.509 114.38 128.684 114.588 127.909C114.795 127.135 115.302 126.475 115.996 126.074C116.69 125.672 117.516 125.564 118.29 125.771C119.065 125.979 119.725 126.485 120.126 127.18ZM45.405 126.433C45.6857 126.713 45.9085 127.047 46.0604 127.413C46.2124 127.78 46.2906 128.173 46.2906 128.571C46.2906 128.968 46.2124 129.361 46.0604 129.728C45.9085 130.094 45.6857 130.428 45.405 130.708C45.1242 130.989 44.7909 131.212 44.424 131.364C44.0572 131.516 43.664 131.594 43.267 131.594C42.8699 131.594 42.4767 131.516 42.1099 131.364C41.7431 131.212 41.4097 130.989 41.129 130.708C40.5619 130.141 40.2434 129.372 40.2434 128.571C40.2434 127.769 40.5619 127 41.129 126.433C41.696 125.865 42.4651 125.547 43.267 125.547C44.0689 125.547 44.8379 125.865 45.405 126.433ZM143.53 124.178C143.893 124.529 144.182 124.95 144.381 125.414C144.58 125.879 144.684 126.378 144.688 126.883C144.692 127.389 144.596 127.89 144.404 128.357C144.213 128.825 143.93 129.25 143.573 129.607C143.215 129.965 142.791 130.247 142.323 130.439C141.855 130.631 141.354 130.727 140.849 130.723C140.344 130.719 139.844 130.615 139.38 130.416C138.915 130.218 138.495 129.928 138.143 129.566C137.447 128.847 137.061 127.884 137.069 126.884C137.076 125.884 137.477 124.927 138.184 124.22C138.891 123.512 139.848 123.111 140.848 123.104C141.849 123.096 142.812 123.481 143.53 124.178ZM35.518 125.197C35.7954 125.541 36.0015 125.937 36.1243 126.362C36.2472 126.787 36.2843 127.233 36.2336 127.672C36.1829 128.112 36.0453 128.537 35.8289 128.923C35.6124 129.308 35.3214 129.647 34.9728 129.92C34.6242 130.192 34.225 130.392 33.7982 130.509C33.3715 130.626 32.9258 130.657 32.4871 130.6C32.0484 130.543 31.6254 130.399 31.2427 130.177C30.86 129.955 30.5253 129.659 30.258 129.307C29.7281 128.608 29.4944 127.729 29.6075 126.859C29.7206 125.989 30.1714 125.199 30.8624 124.659C31.5534 124.119 32.4292 123.873 33.3003 123.973C34.1715 124.074 34.9681 124.513 35.518 125.197ZM22.228 124.769C22.4812 125.202 22.6462 125.681 22.7136 126.179C22.781 126.676 22.7495 127.182 22.6208 127.667C22.4921 128.152 22.2689 128.607 21.9638 129.006C21.6587 129.404 21.2779 129.739 20.8432 129.99C20.4085 130.241 19.9284 130.403 19.4307 130.468C18.9329 130.533 18.4273 130.499 17.9427 130.368C17.4582 130.237 17.0044 130.011 16.6073 129.704C16.2102 129.397 15.8777 129.014 15.629 128.579C15.1298 127.704 14.9974 126.667 15.2605 125.695C15.5236 124.723 16.1609 123.894 17.0331 123.391C17.9053 122.887 18.9414 122.749 19.9149 123.008C20.8883 123.266 21.72 123.899 22.228 124.769ZM130.719 124.52C130.996 124.864 131.202 125.26 131.325 125.685C131.448 126.11 131.485 126.556 131.435 126.995C131.384 127.435 131.246 127.86 131.03 128.246C130.813 128.631 130.522 128.97 130.174 129.243C129.825 129.515 129.426 129.715 128.999 129.832C128.572 129.949 128.127 129.98 127.688 129.923C127.249 129.866 126.826 129.722 126.444 129.5C126.061 129.278 125.726 128.982 125.459 128.63C124.929 127.931 124.695 127.052 124.809 126.182C124.922 125.312 125.372 124.522 126.063 123.982C126.754 123.442 127.63 123.196 128.501 123.296C129.373 123.397 130.169 123.836 130.719 124.52ZM55.323 124.052C55.6125 124.256 55.858 124.517 56.0449 124.819C56.2318 125.12 56.3562 125.456 56.4108 125.807C56.4655 126.157 56.4492 126.515 56.363 126.859C56.2768 127.203 56.1224 127.526 55.9089 127.81C55.6955 128.093 55.4273 128.33 55.1204 128.508C54.8134 128.686 54.4739 128.8 54.122 128.844C53.77 128.888 53.4128 128.861 53.0715 128.765C52.7302 128.668 52.4117 128.504 52.135 128.283C51.5973 127.852 51.2487 127.228 51.1631 126.544C51.0774 125.861 51.2614 125.17 51.676 124.62C52.0907 124.07 52.7034 123.703 53.3842 123.596C54.0651 123.49 54.7605 123.654 55.323 124.052ZM109.594 124.752C109.74 125.073 109.82 125.421 109.829 125.774C109.839 126.127 109.777 126.479 109.649 126.808C109.52 127.137 109.328 127.437 109.081 127.691C108.835 127.944 108.541 128.146 108.216 128.284C107.891 128.422 107.541 128.494 107.188 128.495C106.835 128.496 106.485 128.426 106.159 128.29C105.833 128.154 105.537 127.954 105.29 127.702C105.042 127.45 104.847 127.151 104.717 126.823C104.464 126.18 104.472 125.464 104.74 124.827C105.007 124.19 105.512 123.683 106.148 123.413C106.783 123.143 107.499 123.132 108.143 123.383C108.787 123.633 109.307 124.123 109.594 124.752ZM130.921 115.316C131.202 115.596 131.424 115.93 131.576 116.296C131.728 116.663 131.807 117.056 131.807 117.454C131.807 117.851 131.728 118.244 131.576 118.611C131.424 118.977 131.202 119.311 130.921 119.592C130.64 119.872 130.307 120.095 129.94 120.247C129.573 120.399 129.18 120.477 128.783 120.477C128.386 120.477 127.993 120.399 127.626 120.247C127.259 120.095 126.926 119.872 126.645 119.592C126.078 119.024 125.759 118.255 125.759 117.454C125.759 116.652 126.078 115.883 126.645 115.316C127.212 114.748 127.981 114.43 128.783 114.43C129.585 114.43 130.354 114.748 130.921 115.316ZM44.691 116.124C44.9159 116.397 45.0839 116.712 45.185 117.051C45.2861 117.39 45.3184 117.746 45.2798 118.097C45.2412 118.449 45.1327 118.789 44.9604 119.098C44.7882 119.407 44.5559 119.679 44.2771 119.897C43.9984 120.114 43.6788 120.274 43.3373 120.367C42.9958 120.459 42.6393 120.482 42.2888 120.434C41.9382 120.387 41.6008 120.269 41.2963 120.089C40.9918 119.909 40.7265 119.67 40.516 119.386C40.1048 118.83 39.9267 118.136 40.0197 117.452C40.1128 116.767 40.4696 116.146 41.0141 115.72C41.5585 115.295 42.2477 115.099 42.9345 115.174C43.6214 115.25 44.2516 115.59 44.691 116.124ZM34.648 115.785C34.8465 116.128 34.9754 116.508 35.0273 116.901C35.0792 117.295 35.053 117.695 34.9503 118.079C34.8476 118.462 34.6704 118.822 34.4287 119.137C34.1871 119.452 33.8858 119.716 33.542 119.915C33.1982 120.113 32.8186 120.242 32.425 120.294C32.0314 120.346 31.6314 120.32 31.2479 120.217C30.8644 120.114 30.5049 119.937 30.1899 119.695C29.8749 119.454 29.6105 119.152 29.412 118.809C29.011 118.114 28.9022 117.289 29.1096 116.514C29.317 115.74 29.8236 115.08 30.518 114.679C31.2123 114.277 32.0375 114.169 32.812 114.376C33.5866 114.584 34.247 115.09 34.648 115.785ZM120.248 115.588C120.473 115.861 120.641 116.176 120.742 116.515C120.843 116.854 120.875 117.21 120.837 117.561C120.798 117.913 120.69 118.253 120.517 118.562C120.345 118.871 120.113 119.143 119.834 119.361C119.555 119.578 119.236 119.738 118.894 119.831C118.553 119.923 118.196 119.946 117.846 119.898C117.495 119.851 117.158 119.733 116.853 119.553C116.549 119.373 116.284 119.134 116.073 118.85C115.662 118.294 115.484 117.6 115.577 116.916C115.67 116.231 116.027 115.61 116.571 115.184C117.116 114.759 117.805 114.563 118.492 114.638C119.178 114.714 119.809 115.054 120.248 115.588ZM25.163 112.081C25.3368 112.484 25.4291 112.919 25.4346 113.358C25.4401 113.798 25.3587 114.235 25.195 114.643C25.0313 115.051 24.7886 115.423 24.4808 115.737C24.173 116.051 23.8061 116.301 23.4014 116.473C22.9966 116.644 22.5619 116.735 22.1222 116.738C21.6825 116.741 21.2464 116.658 20.8391 116.492C20.4318 116.326 20.0612 116.082 19.7487 115.772C19.4362 115.463 19.1878 115.095 19.018 114.69C18.6771 113.876 18.6724 112.96 19.0049 112.142C19.3374 111.325 19.9801 110.672 20.7923 110.328C21.6046 109.983 22.5204 109.973 23.3395 110.302C24.1585 110.63 24.8141 111.27 25.163 112.081ZM140.697 109.891C141.404 110.423 141.87 111.215 141.994 112.092C142.117 112.969 141.887 113.858 141.354 114.566C140.821 115.273 140.029 115.739 139.153 115.862C138.276 115.985 137.386 115.755 136.679 115.223C135.983 114.686 135.526 113.896 135.408 113.025C135.291 112.154 135.522 111.271 136.051 110.569C136.58 109.867 137.365 109.402 138.235 109.275C139.104 109.149 139.989 109.369 140.697 109.891ZM152.799 106.219C153.235 106.467 153.617 106.8 153.925 107.197C154.232 107.594 154.457 108.048 154.588 108.532C154.72 109.017 154.754 109.522 154.689 110.02C154.624 110.518 154.461 110.998 154.21 111.433C153.959 111.867 153.625 112.248 153.226 112.553C152.828 112.858 152.373 113.082 151.887 113.21C151.402 113.339 150.896 113.371 150.399 113.303C149.902 113.236 149.422 113.071 148.989 112.818C148.119 112.31 147.486 111.478 147.228 110.504C146.97 109.531 147.108 108.495 147.611 107.623C148.115 106.75 148.943 106.113 149.915 105.85C150.887 105.587 151.924 105.719 152.799 106.219ZM12.608 108.302C12.7433 108.787 12.781 109.294 12.7191 109.793C12.6572 110.293 12.4968 110.776 12.2472 111.213C11.9976 111.651 11.6638 112.034 11.265 112.342C10.8663 112.649 10.4105 112.875 9.92406 113.005C9.43762 113.135 8.93017 113.168 8.43104 113.101C7.93192 113.034 7.45104 112.869 7.0162 112.615C6.58136 112.361 6.20119 112.023 5.89768 111.621C5.59418 111.219 5.37335 110.761 5.24797 110.274C4.99808 109.301 5.14191 108.27 5.64822 107.403C6.15453 106.536 6.9824 105.905 7.95196 105.645C8.92152 105.385 9.95442 105.518 10.8262 106.016C11.6981 106.513 12.3383 107.335 12.608 108.302ZM36.473 105.715C36.6199 106.038 36.7008 106.386 36.711 106.74C36.7211 107.093 36.6603 107.446 36.5321 107.775C36.4039 108.105 36.2109 108.406 35.9645 108.66C35.7181 108.914 35.4233 109.117 35.0975 109.255C34.7716 109.393 34.4214 109.465 34.0675 109.466C33.7135 109.466 33.363 109.396 33.0366 109.259C32.7103 109.122 32.4146 108.921 32.1672 108.668C31.9198 108.415 31.7255 108.115 31.596 107.786C31.3432 107.143 31.3513 106.427 31.6185 105.79C31.8858 105.153 32.391 104.646 33.0267 104.376C33.6624 104.106 34.3783 104.095 35.022 104.346C35.6657 104.596 36.1863 105.087 36.473 105.715ZM128.166 103.978C128.456 104.182 128.701 104.443 128.888 104.745C129.075 105.046 129.199 105.382 129.254 105.733C129.308 106.083 129.292 106.441 129.206 106.785C129.12 107.129 128.965 107.452 128.752 107.736C128.538 108.019 128.27 108.256 127.963 108.434C127.656 108.612 127.317 108.726 126.965 108.77C126.613 108.814 126.256 108.787 125.915 108.691C125.573 108.594 125.255 108.43 124.978 108.209C124.44 107.778 124.092 107.154 124.006 106.47C123.92 105.787 124.104 105.096 124.519 104.546C124.934 103.996 125.546 103.629 126.227 103.522C126.908 103.416 127.603 103.58 128.166 103.978ZM138.276 101.062C138.62 101.261 138.921 101.525 139.163 101.84C139.405 102.155 139.582 102.515 139.685 102.898C139.788 103.282 139.814 103.682 139.762 104.075C139.71 104.469 139.581 104.849 139.383 105.193C139.184 105.536 138.92 105.838 138.605 106.08C138.29 106.321 137.931 106.499 137.547 106.601C137.164 106.704 136.764 106.73 136.37 106.679C135.976 106.627 135.597 106.498 135.253 106.3C134.559 105.899 134.052 105.238 133.844 104.464C133.637 103.689 133.745 102.864 134.146 102.17C134.547 101.475 135.207 100.968 135.982 100.761C136.756 100.553 137.581 100.662 138.276 101.062ZM27.014 102.715C27.1167 103.099 27.1429 103.499 27.0911 103.893C27.0393 104.286 26.9104 104.666 26.7119 105.01C26.5134 105.354 26.249 105.655 25.934 105.897C25.619 106.138 25.2595 106.316 24.876 106.419C24.4924 106.521 24.0924 106.547 23.6988 106.496C23.3051 106.444 22.9255 106.315 22.5817 106.116C22.2378 105.918 21.9364 105.654 21.6947 105.339C21.453 105.024 21.2757 104.664 21.173 104.281C20.9654 103.506 21.0741 102.681 21.4749 101.987C21.8758 101.292 22.536 100.786 23.3105 100.578C24.0849 100.37 24.9101 100.479 25.6044 100.88C26.2988 101.281 26.8064 101.941 27.014 102.715ZM18.556 96.7325C18.617 97.1666 18.592 97.6085 18.4823 98.0329C18.3726 98.4573 18.1804 98.8559 17.9166 99.206C17.6529 99.5562 17.3227 99.8509 16.945 100.073C16.5674 100.296 16.1496 100.442 15.7155 100.503C15.2814 100.564 14.8395 100.539 14.4151 100.429C13.9907 100.32 13.5921 100.127 13.2419 99.8636C12.8918 99.5999 12.5971 99.2697 12.3745 98.8921C12.152 98.5144 12.006 98.0966 11.945 97.6625C11.8372 96.7934 12.0753 95.9166 12.608 95.2215C13.1407 94.5263 13.9253 94.0683 14.7925 93.9462C15.6598 93.8242 16.5403 94.0479 17.2441 94.5692C17.948 95.0904 18.4198 95.8673 18.556 96.7325ZM146.548 93.1785C146.958 93.3402 147.332 93.5815 147.648 93.8884C147.964 94.1953 148.216 94.5617 148.39 94.9666C148.564 95.3714 148.656 95.8067 148.661 96.2473C148.665 96.6879 148.583 97.125 148.418 97.5336C148.253 97.9421 148.009 98.314 147.699 98.6277C147.39 98.9413 147.021 99.1907 146.615 99.3612C146.209 99.5318 145.773 99.6203 145.332 99.6215C144.892 99.6228 144.455 99.5368 144.048 99.3685C143.234 99.0322 142.586 98.3878 142.245 97.5759C141.904 96.7639 141.898 95.8501 142.228 95.0335C142.558 94.2169 143.197 93.5638 144.006 93.2163C144.815 92.8689 145.729 92.8553 146.548 93.1785ZM31.229 93.5345C31.2891 93.8842 31.2783 94.2424 31.1974 94.5879C31.1164 94.9334 30.9669 95.2591 30.7577 95.5457C30.5485 95.8323 30.2839 96.0739 29.9796 96.2564C29.6752 96.4388 29.3373 96.5582 28.9859 96.6076C28.6346 96.6569 28.2768 96.6352 27.934 96.5437C27.5912 96.4522 27.2702 96.2928 26.9901 96.075C26.7101 95.8571 26.4766 95.5852 26.3036 95.2754C26.1306 94.9656 26.0216 94.6242 25.983 94.2715C25.9081 93.5868 26.1027 92.8999 26.5256 92.3562C26.9485 91.8125 27.5665 91.4549 28.2486 91.3591C28.9307 91.2633 29.6233 91.4368 30.1796 91.8429C30.7359 92.2489 31.1123 92.8557 31.229 93.5345ZM132.81 90.7135C133.143 90.8363 133.448 91.0247 133.706 91.2675C133.965 91.5103 134.172 91.8026 134.316 92.127C134.46 92.4514 134.537 92.8014 134.542 93.1562C134.548 93.5109 134.483 93.8632 134.35 94.1922C134.217 94.5211 134.019 94.8201 133.769 95.0712C133.518 95.3224 133.22 95.5207 132.891 95.6544C132.563 95.7881 132.21 95.8544 131.856 95.8494C131.501 95.8445 131.151 95.7683 130.826 95.6255C130.195 95.3482 129.698 94.8363 129.438 94.1982C129.178 93.5601 129.178 92.846 129.436 92.2072C129.694 91.5685 130.19 91.0553 130.82 90.7765C131.45 90.4977 132.164 90.4751 132.81 90.7135ZM152.437 89.1665C152.562 88.6788 152.783 88.2207 153.087 87.8188C153.39 87.417 153.77 87.0793 154.205 86.8252C154.64 86.5712 155.121 86.4059 155.62 86.3389C156.119 86.2719 156.627 86.3045 157.113 86.4349C157.6 86.5652 158.055 86.7907 158.454 87.0983C158.853 87.4058 159.187 87.7894 159.436 88.2268C159.686 88.6642 159.846 89.1468 159.908 89.6465C159.97 90.1463 159.932 90.6534 159.797 91.1385C159.527 92.1054 158.887 92.9268 158.015 93.4242C157.143 93.9217 156.111 94.055 155.141 93.7952C154.171 93.5355 153.344 92.9036 152.837 92.0369C152.331 91.1702 152.187 90.1387 152.437 89.1665ZM3.76797 86.0965C4.27552 86.0849 4.78028 86.1748 5.25258 86.361C5.72489 86.5472 6.15522 86.8259 6.5183 87.1807C6.88137 87.5356 7.16987 87.9594 7.36683 88.4273C7.5638 88.8953 7.66526 89.3978 7.66526 89.9055C7.66526 90.4132 7.5638 90.9157 7.36683 91.3837C7.16987 91.8516 6.88137 92.2754 6.5183 92.6303C6.15522 92.9851 5.72489 93.2638 5.25258 93.45C4.78028 93.6362 4.27552 93.7261 3.76797 93.7145C2.76832 93.6983 1.81509 93.2898 1.11388 92.5772C0.41268 91.8645 0.0196965 90.9048 0.0196965 89.905C0.0196965 88.9052 0.41268 87.9455 1.11388 87.2328C1.81509 86.5202 2.76832 86.1127 3.76797 86.0965ZM141.691 85.3915C142.074 85.4943 142.434 85.6715 142.749 85.9132C143.064 86.1549 143.328 86.4563 143.527 86.8001C143.725 87.1439 143.854 87.5234 143.906 87.917C143.957 88.3106 143.931 88.7105 143.828 89.094C143.726 89.4775 143.548 89.8369 143.307 90.1519C143.065 90.4668 142.764 90.7311 142.42 90.9296C142.076 91.1281 141.697 91.2569 141.303 91.3087C140.909 91.3605 140.509 91.3343 140.126 91.2315C139.352 91.024 138.691 90.5173 138.29 89.8229C137.89 89.1286 137.781 88.3034 137.988 87.529C138.196 86.7546 138.703 86.0943 139.397 85.6934C140.091 85.2926 140.917 85.184 141.691 85.3915ZM19.997 85.0915C20.7989 85.0915 21.5679 85.41 22.1349 85.9771C22.7019 86.5441 23.0205 87.3131 23.0205 88.115C23.0205 88.9169 22.7019 89.6859 22.1349 90.2529C21.5679 90.82 20.7989 91.1385 19.997 91.1385C19.1951 91.1385 18.4261 90.82 17.859 90.2529C17.292 89.6859 16.9735 88.9169 16.9735 88.115C16.9735 87.3131 17.292 86.5441 17.859 85.9771C18.4261 85.41 19.1951 85.0915 19.997 85.0915ZM13.059 76.7235C13.4943 76.7703 13.9159 76.9033 14.2994 77.1145C14.6828 77.3258 15.0204 77.6113 15.2925 77.9542C15.5646 78.2972 15.7658 78.6909 15.8844 79.1123C16.003 79.5338 16.0365 79.9746 15.9832 80.4091C15.9298 80.8436 15.7905 81.2632 15.5735 81.6435C15.3565 82.0237 15.066 82.357 14.719 82.6239C14.3719 82.8908 13.9753 83.086 13.5521 83.1983C13.1289 83.3105 12.6877 83.3374 12.254 83.2775C11.395 83.1589 10.6172 82.7071 10.0885 82.0197C9.55979 81.3324 9.32271 80.4647 9.42842 79.604C9.53413 78.7433 9.97416 77.9588 10.6535 77.4198C11.3328 76.8809 12.1968 76.6308 13.059 76.7235ZM26.866 77.6535C27.5558 77.7381 28.1838 78.0933 28.6117 78.6409C29.0397 79.1885 29.2326 79.8837 29.148 80.5735C29.0634 81.2633 28.7082 81.8913 28.1606 82.3193C27.613 82.7472 26.9178 82.9401 26.228 82.8555C25.8864 82.8136 25.5564 82.7049 25.2569 82.5354C24.9574 82.366 24.6941 82.1393 24.4822 81.8681C24.0543 81.3205 23.8614 80.6253 23.946 79.9355C24.0306 79.2457 24.3857 78.6177 24.9334 78.1898C25.481 77.7618 26.1761 77.5689 26.866 77.6535ZM147.662 75.7075C148.097 75.7543 148.519 75.8873 148.902 76.0985C149.286 76.3098 149.623 76.5953 149.896 76.9382C150.168 77.2812 150.369 77.6749 150.487 78.0963C150.606 78.5178 150.64 78.9586 150.586 79.3931C150.533 79.8276 150.394 80.2472 150.176 80.6275C149.959 81.0077 149.669 81.341 149.322 81.6079C148.975 81.8748 148.578 82.07 148.155 82.1823C147.732 82.2945 147.291 82.3214 146.857 82.2615C145.998 82.1429 145.22 81.6911 144.691 81.0037C144.163 80.3164 143.926 79.4487 144.031 78.588C144.137 77.7273 144.577 76.9428 145.256 76.4038C145.936 75.8649 146.8 75.6148 147.662 75.7075ZM133.694 76.8475C134.036 76.8886 134.367 76.9969 134.667 77.166C134.967 77.3351 135.231 77.5618 135.444 77.833C135.656 78.1043 135.813 78.4148 135.905 78.7468C135.998 79.0788 136.024 79.4257 135.982 79.7678C135.94 80.1098 135.831 80.4402 135.661 80.74C135.491 81.0398 135.264 81.3032 134.992 81.5151C134.72 81.7269 134.409 81.8831 134.077 81.9746C133.745 82.0662 133.398 82.0913 133.056 82.0485C132.368 81.9624 131.741 81.6068 131.315 81.0596C130.888 80.5124 130.696 79.8184 130.781 79.1298C130.865 78.4411 131.219 77.8141 131.765 77.3863C132.312 76.9584 133.005 76.7647 133.694 76.8475ZM140.934 69.3705C141.736 69.3705 142.505 69.689 143.072 70.2559C143.638 70.8228 143.957 71.5918 143.957 72.3935C143.957 73.1953 143.638 73.9642 143.072 74.5311C142.505 75.098 141.736 75.4165 140.934 75.4165C140.132 75.4165 139.363 75.098 138.796 74.5311C138.229 73.9642 137.911 73.1953 137.911 72.3935C137.911 71.5918 138.229 70.8228 138.796 70.2559C139.363 69.689 140.132 69.3705 140.934 69.3705ZM20.806 69.2765C21.1895 69.3793 21.549 69.5566 21.864 69.7983C22.179 70.04 22.4434 70.3414 22.6419 70.6852C22.8404 71.0291 22.9693 71.4087 23.0211 71.8023C23.0729 72.196 23.0467 72.596 22.944 72.9795C22.8412 73.363 22.6639 73.7226 22.4222 74.0376C22.1805 74.3526 21.8791 74.6169 21.5353 74.8154C21.1914 75.014 20.8118 75.1428 20.4182 75.1946C20.0245 75.2465 19.6245 75.2203 19.241 75.1175C18.4665 74.91 17.8063 74.4033 17.4054 73.7089C17.0046 73.0146 16.8959 72.1894 17.1035 71.415C17.311 70.6406 17.8177 69.9803 18.512 69.5794C19.2064 69.1786 20.0315 69.069 20.806 69.2765ZM156.148 66.2865C156.653 66.2783 157.155 66.3708 157.625 66.5586C158.094 66.7463 158.522 67.0256 158.882 67.3802C159.242 67.7347 159.528 68.1575 159.724 68.6237C159.919 69.09 160.02 69.5905 160.02 70.096C160.02 70.6015 159.919 71.102 159.724 71.5683C159.528 72.0345 159.242 72.4573 158.882 72.8118C158.522 73.1664 158.094 73.4457 157.625 73.6334C157.155 73.8212 156.653 73.9137 156.148 73.9055C155.138 73.9055 154.168 73.5041 153.454 72.7896C152.739 72.0751 152.338 71.106 152.338 70.0955C152.338 69.085 152.739 68.1159 153.454 67.4014C154.168 66.6869 155.138 66.2865 156.148 66.2865ZM0.119973 68.8625C0.24535 68.3748 0.466177 67.9167 0.769685 67.5148C1.07319 67.113 1.45336 66.7753 1.8882 66.5212C2.32304 66.2672 2.80392 66.1019 3.30304 66.0349C3.80217 65.9679 4.30962 66.0005 4.79606 66.1309C5.2825 66.2612 5.73828 66.4867 6.13704 66.7943C6.53579 67.1018 6.86961 67.4854 7.11919 67.9228C7.36878 68.3602 7.52917 68.8428 7.5911 69.3425C7.65302 69.8423 7.61525 70.3494 7.47997 70.8345C7.21034 71.8014 6.57005 72.6228 5.69824 73.1202C4.82642 73.6177 3.79352 73.751 2.82396 73.4912C1.8544 73.2315 1.02653 72.5996 0.520217 71.7329C0.0139095 70.8661 -0.129923 69.8347 0.119973 68.8625ZM29.4 63.7905C29.7307 63.9149 30.0332 64.1042 30.2897 64.3473C30.5462 64.5903 30.7515 64.8822 30.8935 65.2058C31.0355 65.5293 31.1114 65.878 31.1166 66.2313C31.1219 66.5847 31.0565 66.9355 30.9241 67.2631C30.7918 67.5907 30.5953 67.8886 30.3462 68.1392C30.0971 68.3898 29.8003 68.588 29.4735 68.7222C29.1466 68.8564 28.7962 68.9239 28.4428 68.9207C28.0895 68.9175 27.7404 68.8436 27.416 68.7035C26.7788 68.4305 26.2739 67.9186 26.0097 67.2776C25.7455 66.6367 25.743 65.9178 26.0027 65.275C26.2624 64.6322 26.7636 64.1168 27.3989 63.8393C28.0342 63.5618 28.7529 63.5443 29.401 63.7905H29.4ZM134.244 65.1455C134.301 65.4941 134.289 65.8507 134.206 66.1942C134.124 66.5378 133.974 66.8614 133.764 67.146C133.555 67.4307 133.291 67.6706 132.988 67.8517C132.684 68.0328 132.348 68.1514 131.998 68.2005C131.648 68.2497 131.292 68.2284 130.95 68.1378C130.609 68.0473 130.289 67.8894 130.009 67.6735C129.73 67.4575 129.496 67.1878 129.322 66.8802C129.148 66.5727 129.038 66.2334 128.997 65.8825C128.917 65.1952 129.109 64.5039 129.532 63.9563C129.955 63.4087 130.575 63.0483 131.261 62.952C131.946 62.8558 132.641 63.0314 133.199 63.4412C133.756 63.8511 134.132 64.4628 134.244 65.1455ZM16.252 59.2555C16.6618 59.4172 17.0356 59.6585 17.3518 59.9654C17.6679 60.2723 17.9202 60.6387 18.094 61.0436C18.2679 61.4484 18.3599 61.8837 18.3646 62.3243C18.3694 62.7649 18.2869 63.202 18.1219 63.6106C17.9569 64.0191 17.7127 64.391 17.4033 64.7047C17.0938 65.0183 16.7254 65.2677 16.3191 65.4382C15.9129 65.6088 15.4769 65.6973 15.0363 65.6985C14.5957 65.6998 14.1592 65.6138 13.752 65.4455C12.9381 65.1092 12.2901 64.4648 11.9491 63.6528C11.6082 62.8409 11.6019 61.9271 11.9317 61.1105C12.2615 60.2939 12.9006 59.6408 13.7099 59.2933C14.5191 58.9459 15.4328 58.9323 16.252 59.2555ZM148.354 60.9635C148.423 61.4013 148.405 61.8486 148.3 62.2792C148.194 62.7098 148.004 63.1152 147.741 63.4715C147.477 63.8279 147.145 64.1282 146.764 64.3549C146.383 64.5815 145.961 64.7301 145.522 64.7918C145.083 64.8535 144.636 64.8271 144.207 64.7142C143.778 64.6013 143.377 64.4042 143.025 64.1343C142.673 63.8644 142.379 63.5272 142.159 63.1423C141.939 62.7574 141.798 62.3325 141.744 61.8925C141.636 61.0233 141.874 60.1466 142.407 59.4514C142.94 58.7563 143.724 58.2983 144.592 58.1762C145.459 58.0542 146.339 58.2779 147.043 58.7992C147.747 59.3204 148.218 60.0983 148.354 60.9635ZM139.76 56.2285C139.968 57.0029 139.859 57.8281 139.458 58.5224C139.057 59.2168 138.397 59.7235 137.622 59.931C137.239 60.0338 136.839 60.06 136.445 60.0082C136.052 59.9564 135.672 59.8275 135.329 59.6291C134.634 59.2282 134.128 58.5679 133.92 57.7935C133.712 57.0191 133.821 56.1939 134.222 55.4996C134.623 54.8052 135.283 54.2985 136.057 54.091C136.832 53.8835 137.657 53.9921 138.351 54.3929C139.046 54.7938 139.552 55.4541 139.76 56.2285ZM25.68 54.2095C26.3744 54.6105 26.8812 55.271 27.0887 56.0456C27.2962 56.8202 27.1875 57.6455 26.7865 58.34C26.3855 59.0345 25.725 59.5412 24.9504 59.7487C24.1758 59.9562 23.3504 59.8475 22.656 59.4465C22.3121 59.2479 22.0107 58.9836 21.769 58.6686C21.5273 58.3535 21.35 57.994 21.2473 57.6104C21.1445 57.2269 21.1183 56.8268 21.1702 56.4332C21.222 56.0395 21.3509 55.6599 21.5495 55.316C21.748 54.9721 22.0124 54.6707 22.3274 54.429C22.6424 54.1873 23.002 54.01 23.3856 53.9073C24.1602 53.6998 24.9855 53.8085 25.68 54.2095ZM35.249 51.2085C35.5389 51.4132 35.7848 51.6741 35.972 51.9757C36.1592 52.2773 36.284 52.6134 36.3388 52.9641C36.3936 53.3149 36.3774 53.673 36.2911 54.0173C36.2048 54.3617 36.0503 54.6851 35.8366 54.9686C35.6229 55.252 35.3544 55.4896 35.0471 55.6673C34.7399 55.845 34.4 55.9592 34.0477 56.003C33.6955 56.0469 33.338 56.0195 32.9966 55.9225C32.6551 55.8255 32.3366 55.6609 32.06 55.4385C31.5234 55.0071 31.1758 54.3837 31.0908 53.7005C31.0058 53.0173 31.19 52.3278 31.6045 51.778C32.019 51.2283 32.6311 50.8614 33.3114 50.7551C33.9916 50.6488 34.6865 50.8114 35.249 51.2085ZM128.63 51.6315C128.777 51.9535 128.858 52.3017 128.868 52.6555C128.878 53.0093 128.817 53.3616 128.689 53.6915C128.561 54.0214 128.368 54.3223 128.121 54.5764C127.875 54.8305 127.58 55.0326 127.254 55.1709C126.929 55.3092 126.578 55.3808 126.224 55.3815C125.871 55.3823 125.52 55.3121 125.194 55.1751C124.867 55.0381 124.572 54.8372 124.324 54.5841C124.077 54.331 123.883 54.0309 123.753 53.7015C123.5 53.0588 123.508 52.3429 123.776 51.7061C124.043 51.0693 124.548 50.562 125.184 50.2922C125.819 50.0224 126.535 50.0114 127.179 50.2615C127.823 50.5117 128.343 51.0032 128.63 51.6315ZM154.669 49.7275C154.804 50.2126 154.842 50.7197 154.78 51.2195C154.718 51.7192 154.558 52.2018 154.308 52.6392C154.059 53.0766 153.725 53.4602 153.326 53.7678C152.927 54.0753 152.471 54.3008 151.985 54.4312C151.499 54.5615 150.991 54.5941 150.492 54.5271C149.993 54.4601 149.512 54.2948 149.077 54.0408C148.642 53.7867 148.262 53.449 147.959 53.0472C147.655 52.6453 147.434 52.1872 147.309 51.6995C147.059 50.7273 147.203 49.6959 147.709 48.8291C148.216 47.9624 149.043 47.3305 150.013 47.0708C150.983 46.811 152.015 46.9443 152.887 47.4418C153.759 47.9392 154.399 48.7606 154.669 49.7275ZM10.927 47.1835C11.3669 47.4301 11.7535 47.7617 12.0643 48.1589C12.3751 48.5561 12.604 49.011 12.7376 49.4973C12.8713 49.9837 12.907 50.4917 12.8428 50.9919C12.7786 51.4922 12.6157 51.9747 12.3636 52.4115C12.1115 52.8483 11.7751 53.2307 11.374 53.5365C10.973 53.8424 10.5152 54.0655 10.0272 54.1931C9.53927 54.3206 9.03085 54.35 8.53144 54.2795C8.03203 54.209 7.55159 54.0401 7.11797 53.7825C6.24835 53.2745 5.61524 52.4429 5.35706 51.4694C5.09888 50.4959 5.23663 49.4598 5.7402 48.5877C6.24376 47.7155 7.07218 47.0781 8.04432 46.815C9.01646 46.5519 10.0532 46.6844 10.928 47.1835H10.927ZM23.62 43.4025C23.9784 43.6631 24.2814 43.9924 24.5113 44.3714C24.7411 44.7503 24.8932 45.1712 24.9586 45.6095C25.0241 46.0478 25.0016 46.4948 24.8925 46.9243C24.7834 47.3538 24.5898 47.7573 24.3231 48.1113C24.0564 48.4652 23.7219 48.7625 23.3391 48.9858C22.9563 49.2091 22.5329 49.3539 22.0935 49.4118C21.6541 49.4698 21.2076 49.4396 20.78 49.3231C20.3524 49.2067 19.9523 49.0062 19.603 48.7335C18.913 48.1948 18.4623 47.4066 18.3479 46.5387C18.2334 45.6709 18.4645 44.7928 18.9913 44.0937C19.5181 43.3946 20.2985 42.9304 21.1642 42.8011C22.03 42.6718 22.9119 42.8878 23.62 43.4025ZM141.281 43.9355C141.458 44.34 141.554 44.7757 141.561 45.2173C141.569 45.6589 141.489 46.0977 141.326 46.5082C141.163 46.9187 140.92 47.2927 140.612 47.6087C140.303 47.9246 139.935 48.1762 139.528 48.3487C139.121 48.5213 138.685 48.6114 138.243 48.6139C137.801 48.6165 137.364 48.5313 136.955 48.3634C136.546 48.1955 136.175 47.9482 135.863 47.6358C135.551 47.3234 135.304 46.9521 135.136 46.5435C134.802 45.7309 134.803 44.8195 135.137 44.007C135.471 43.1946 136.111 42.5465 136.92 42.2033C137.728 41.8601 138.64 41.8495 139.456 42.1738C140.273 42.498 140.928 43.131 141.281 43.9355ZM131.521 41.7005C131.72 42.0444 131.848 42.424 131.9 42.8176C131.952 43.2113 131.926 43.6114 131.823 43.9949C131.72 44.3785 131.543 44.738 131.301 45.0531C131.06 45.3681 130.758 45.6324 130.414 45.831C130.071 46.0296 129.691 46.1584 129.297 46.2103C128.904 46.2621 128.504 46.236 128.12 46.1332C127.737 46.0305 127.377 45.8532 127.062 45.6115C126.747 45.3698 126.483 45.0684 126.284 44.7245C125.883 44.03 125.774 43.2047 125.982 42.4301C126.189 41.6555 126.696 40.995 127.39 40.594C128.085 40.193 128.91 40.0843 129.685 40.2918C130.46 40.4993 131.12 41.006 131.521 41.7005ZM34.288 40.9175C34.855 41.4845 35.1736 42.2536 35.1736 43.0555C35.1736 43.8574 34.855 44.6265 34.288 45.1935C33.7209 45.7605 32.9519 46.0791 32.15 46.0791C31.3481 46.0791 30.579 45.7605 30.012 45.1935C29.4449 44.6265 29.1264 43.8574 29.1264 43.0555C29.1264 42.2536 29.4449 41.4845 30.012 40.9175C30.579 40.3505 31.3481 40.0319 32.15 40.0319C32.9519 40.0319 33.7209 40.3505 34.288 40.9175ZM44.154 40.5675C44.3789 40.8405 44.5469 41.1559 44.648 41.4949C44.7491 41.8339 44.7814 42.1897 44.7428 42.5413C44.7042 42.893 44.5957 43.2334 44.4235 43.5424C44.2512 43.8514 44.0189 44.1228 43.7402 44.3406C43.4614 44.5584 43.1418 44.7182 42.8003 44.8106C42.4588 44.9029 42.1023 44.9259 41.7518 44.8783C41.4012 44.8307 41.0638 44.7133 40.7593 44.5332C40.4548 44.3531 40.1895 44.1138 39.979 43.8295C39.5678 43.2742 39.3897 42.5803 39.4827 41.8956C39.5758 41.2109 39.9326 40.5896 40.4771 40.1642C41.0215 39.7388 41.7107 39.5429 42.3975 39.6182C43.0844 39.6936 43.7146 40.0342 44.154 40.5675ZM119.71 40.0305C119.935 40.3035 120.103 40.6189 120.204 40.9579C120.305 41.2969 120.337 41.6527 120.299 42.0043C120.26 42.356 120.152 42.6964 119.979 43.0054C119.807 43.3144 119.575 43.5858 119.296 43.8036C119.017 44.0214 118.698 44.1812 118.356 44.2735C118.015 44.3659 117.658 44.3889 117.308 44.3413C116.957 44.2937 116.62 44.1763 116.315 43.9962C116.011 43.8161 115.746 43.5768 115.535 43.2925C115.124 42.7372 114.946 42.0433 115.039 41.3586C115.132 40.6739 115.489 40.0526 116.033 39.6272C116.578 39.2018 117.267 39.0059 117.954 39.0812C118.64 39.1566 119.271 39.4972 119.71 40.0305ZM144.288 31.4225C144.541 31.8559 144.706 32.3351 144.774 32.8325C144.841 33.33 144.81 33.8358 144.681 34.321C144.552 34.8062 144.329 35.2612 144.024 35.6598C143.719 36.0584 143.338 36.3928 142.903 36.6438C142.468 36.8948 141.988 37.0574 141.491 37.1223C140.993 37.1872 140.487 37.1531 140.003 37.0219C139.518 36.8908 139.064 36.6652 138.667 36.3581C138.27 36.051 137.938 35.6685 137.689 35.2325C137.19 34.3578 137.057 33.321 137.32 32.3488C137.584 31.3767 138.221 30.5483 139.093 30.0447C139.965 29.5412 141.001 29.4034 141.975 29.6616C142.948 29.9198 143.78 30.5529 144.288 31.4225ZM21.773 30.4355C22.1359 30.7872 22.4251 31.2075 22.624 31.6721C22.8229 32.1366 22.9273 32.6361 22.9313 33.1414C22.9353 33.6467 22.8387 34.1478 22.6472 34.6154C22.4557 35.0831 22.1731 35.5079 21.8158 35.8653C21.4585 36.2226 21.0337 36.5054 20.5661 36.697C20.0985 36.8886 19.5974 36.9852 19.0921 36.9813C18.5868 36.9775 18.0873 36.8731 17.6227 36.6743C17.1581 36.4755 16.7377 36.1863 16.386 35.8235C15.6898 35.1054 15.3039 34.1423 15.3116 33.1421C15.3193 32.142 15.7199 31.1849 16.4271 30.4776C17.1343 29.7703 18.0912 29.3695 19.0914 29.3616C20.0916 29.3537 21.0547 29.7394 21.773 30.4355ZM55.509 32.5945C55.6559 32.9165 55.7368 33.2647 55.747 33.6185C55.7571 33.9723 55.6963 34.3246 55.5681 34.6545C55.4399 34.9844 55.2469 35.2853 55.0005 35.5394C54.7541 35.7935 54.4593 35.9956 54.1334 36.1339C53.8076 36.2722 53.4574 36.3438 53.1035 36.3445C52.7495 36.3453 52.399 36.2751 52.0726 36.1381C51.7463 36.0011 51.4506 35.8002 51.2032 35.5471C50.9558 35.294 50.7615 34.9939 50.632 34.6645C50.3792 34.0218 50.3873 33.3059 50.6545 32.6691C50.9218 32.0323 51.427 31.525 52.0627 31.2552C52.6984 30.9854 53.4143 30.9744 54.058 31.2245C54.7017 31.4747 55.2223 31.9662 55.509 32.5945ZM108.092 31.1345C108.38 31.34 108.624 31.6012 108.809 31.9025C108.995 32.2038 109.118 32.5392 109.172 32.8888C109.225 33.2385 109.209 33.5954 109.122 33.9385C109.036 34.2816 108.882 34.6039 108.669 34.8864C108.456 35.169 108.188 35.406 107.882 35.5835C107.576 35.7611 107.238 35.8756 106.887 35.9202C106.536 35.9649 106.18 35.9388 105.839 35.8435C105.498 35.7482 105.18 35.5857 104.903 35.3655C104.362 34.9355 104.011 34.3112 103.924 33.6258C103.836 32.9404 104.02 32.2481 104.436 31.6964C104.852 31.1446 105.467 30.7771 106.15 30.6721C106.833 30.5672 107.53 30.7331 108.092 31.1345ZM34.841 29.9945C35.1184 30.3391 35.3245 30.7355 35.4473 31.1605C35.5702 31.5855 35.6073 32.0307 35.5566 32.4702C35.5059 32.9097 35.3683 33.3347 35.1519 33.7205C34.9354 34.1064 34.6444 34.4453 34.2958 34.7177C33.9472 34.9901 33.548 35.1905 33.1212 35.3072C32.6945 35.4239 32.2488 35.4546 31.8101 35.3976C31.3714 35.3405 30.9484 35.1968 30.5657 34.9748C30.183 34.7528 29.8483 34.457 29.581 34.1045C29.0511 33.4058 28.8174 32.5266 28.9305 31.6569C29.0436 30.7873 29.4944 29.9971 30.1854 29.4572C30.8764 28.9172 31.7522 28.6709 32.6233 28.7715C33.4945 28.872 34.2911 29.3113 34.841 29.9945ZM119.803 29.8005C120.084 30.0813 120.306 30.4146 120.458 30.7814C120.61 31.1483 120.689 31.5414 120.689 31.9385C120.689 32.3356 120.61 32.7287 120.458 33.0956C120.306 33.4624 120.084 33.7957 119.803 34.0765C119.522 34.3573 119.189 34.58 118.822 34.7319C118.455 34.8839 118.062 34.9621 117.665 34.9621C117.268 34.9621 116.875 34.8839 116.508 34.7319C116.141 34.58 115.808 34.3573 115.527 34.0765C114.96 33.5095 114.641 32.7404 114.641 31.9385C114.641 31.1366 114.96 30.3675 115.527 29.8005C116.094 29.2335 116.863 28.9149 117.665 28.9149C118.467 28.9149 119.236 29.2335 119.803 29.8005ZM46.043 30.3055C46.2415 30.6494 46.3704 31.0291 46.4222 31.4228C46.4741 31.8166 46.4478 32.2167 46.345 32.6003C46.2422 32.9839 46.0649 33.3435 45.8231 33.6585C45.5814 33.9736 45.2799 34.2379 44.936 34.4365C44.592 34.6351 44.2124 34.7639 43.8186 34.8158C43.4249 34.8676 43.0248 34.8414 42.6412 34.7386C42.2576 34.6358 41.898 34.4584 41.583 34.2167C41.2679 33.9749 41.0035 33.6734 40.805 33.3295C40.6064 32.9856 40.4775 32.606 40.4257 32.2123C40.3738 31.8187 40.4 31.4186 40.5028 31.0351C40.7103 30.2605 41.217 29.6 41.9115 29.199C42.6059 28.798 43.4313 28.6893 44.2059 28.8968C44.9805 29.1043 45.642 29.611 46.043 30.3055ZM130.042 29.3185C130.319 29.6631 130.525 30.0595 130.648 30.4845C130.771 30.9095 130.808 31.3547 130.758 31.7942C130.707 32.2337 130.569 32.6587 130.353 33.0445C130.136 33.4304 129.845 33.7693 129.497 34.0417C129.148 34.3141 128.749 34.5145 128.322 34.6312C127.896 34.7479 127.45 34.7786 127.011 34.7216C126.572 34.6645 126.149 34.5208 125.767 34.2988C125.384 34.0768 125.049 33.781 124.782 33.4285C124.252 32.7298 124.018 31.8506 124.132 30.9809C124.245 30.1113 124.695 29.3211 125.386 28.7812C126.077 28.2412 126.953 27.9949 127.824 28.0955C128.696 28.196 129.492 28.6353 130.042 29.3185ZM68.542 27.8315C68.599 28.1799 68.5859 28.5362 68.5033 28.8794C68.4208 29.2227 68.2705 29.546 68.0613 29.8304C67.852 30.1147 67.5881 30.3544 67.2849 30.5353C66.9818 30.7163 66.6455 30.8348 66.2959 30.884C65.9463 30.9331 65.5904 30.912 65.2491 30.8217C64.9078 30.7314 64.588 30.5738 64.3084 30.3582C64.0289 30.1426 63.7952 29.8733 63.6212 29.5661C63.4471 29.259 63.3362 28.9201 63.295 28.5695C63.2141 27.8818 63.4055 27.1897 63.8284 26.6414C64.2513 26.0931 64.872 25.7321 65.5577 25.6356C66.2434 25.5392 66.9396 25.715 67.4974 26.1254C68.0551 26.5358 68.4301 27.1482 68.542 27.8315ZM94.566 25.5475C94.8967 25.6719 95.1992 25.8612 95.4557 26.1043C95.7122 26.3473 95.9175 26.6392 96.0595 26.9628C96.2015 27.2863 96.2774 27.635 96.2826 27.9883C96.2879 28.3416 96.2225 28.6924 96.0901 29.0201C95.9578 29.3477 95.7613 29.6456 95.5122 29.8962C95.2631 30.1468 94.9663 30.345 94.6395 30.4792C94.3126 30.6134 93.9622 30.6809 93.6088 30.6777C93.2555 30.6745 92.9063 30.6006 92.582 30.4605C91.9469 30.1861 91.4443 29.6743 91.1815 29.0343C90.9188 28.3944 90.9167 27.677 91.1757 27.0355C91.4348 26.394 91.9344 25.8793 92.5679 25.6013C93.2014 25.3232 93.9185 25.3039 94.566 25.5475ZM80.079 23.6355C80.7687 23.7202 81.3964 24.0755 81.8242 24.6231C82.252 25.1707 82.4447 25.8658 82.36 26.5555C82.2752 27.2452 81.92 27.873 81.3724 28.3008C80.8248 28.7285 80.1297 28.9212 79.44 28.8365C78.7503 28.7518 78.1225 28.3965 77.6947 27.8489C77.2669 27.3013 77.0742 26.6062 77.159 25.9165C77.2437 25.2268 77.599 24.599 78.1466 24.1712C78.6942 23.7435 79.3893 23.5508 80.079 23.6355ZM105.404 21.3385C106.098 21.7394 106.605 22.3997 106.813 23.1742C107.02 23.9488 106.912 24.774 106.511 25.4685C106.312 25.8124 106.048 26.1138 105.733 26.3555C105.418 26.5972 105.059 26.7746 104.675 26.8773C103.901 27.085 103.075 26.9764 102.381 26.5755C101.687 26.1746 101.18 25.5143 100.972 24.7398C100.765 23.9652 100.873 23.14 101.274 22.4455C101.675 21.751 102.335 21.2443 103.11 21.0366C103.884 20.829 104.71 20.9376 105.404 21.3385ZM60.143 23.0985C60.3505 23.8731 60.2418 24.6983 59.8409 25.3928C59.4399 26.0872 58.7795 26.594 58.005 26.8015C57.2304 27.009 56.4051 26.9004 55.7107 26.4994C55.0162 26.0985 54.5095 25.4381 54.302 24.6635C54.0944 23.8891 54.2031 23.0639 54.6039 22.3696C55.0048 21.6752 55.665 21.1685 56.4395 20.961C57.2139 20.7535 58.0391 20.8621 58.7334 21.2629C59.4278 21.6638 59.9344 22.3241 60.142 23.0985H60.143ZM49.149 19.9485C49.3228 20.3524 49.4151 20.7867 49.4206 21.2264C49.4261 21.6661 49.3447 22.1025 49.181 22.5106C49.0173 22.9188 48.7746 23.2905 48.4668 23.6046C48.159 23.9186 47.7921 24.1687 47.3874 24.3406C46.9826 24.5124 46.5479 24.6026 46.1082 24.606C45.6685 24.6093 45.2324 24.5257 44.8251 24.36C44.4178 24.1943 44.0472 23.9498 43.7347 23.6405C43.4222 23.3311 43.1738 22.9631 43.004 22.5575C42.6631 21.7435 42.6584 20.8277 42.9909 20.0103C43.3234 19.1929 43.9661 18.5404 44.7784 18.1955C45.5906 17.8506 46.5064 17.8415 47.3255 18.17C48.1445 18.4985 48.8001 19.1379 49.149 19.9485ZM115.403 18.1085C115.753 18.3723 116.048 18.7025 116.27 19.0802C116.493 19.458 116.639 19.8758 116.7 20.3099C116.761 20.744 116.736 21.1859 116.626 21.6103C116.516 22.0348 116.324 22.4334 116.06 22.7835C115.796 23.1336 115.466 23.4283 115.088 23.6508C114.71 23.8733 114.293 24.0192 113.859 24.0802C113.424 24.1412 112.983 24.1161 112.558 24.0064C112.134 23.8966 111.735 23.7043 111.385 23.4405C110.689 22.9039 110.232 22.1143 110.114 21.243C109.997 20.3718 110.228 19.4894 110.757 18.7874C111.286 18.0853 112.071 17.6204 112.941 17.4934C113.81 17.3665 114.695 17.5869 115.403 18.1085ZM129.523 16.4285C129.886 16.7802 130.175 17.2007 130.374 17.6652C130.573 18.1298 130.677 18.6293 130.681 19.1346C130.685 19.64 130.588 20.141 130.396 20.6086C130.205 21.0762 129.922 21.501 129.565 21.8583C129.207 22.2156 128.783 22.4982 128.315 22.6897C127.847 22.8813 127.346 22.9778 126.841 22.9738C126.336 22.9699 125.836 22.8654 125.372 22.6665C124.907 22.4677 124.487 22.1784 124.135 21.8155C123.439 21.0973 123.053 20.1341 123.061 19.1339C123.069 18.1338 123.47 17.1768 124.177 16.4696C124.884 15.7625 125.841 15.3618 126.842 15.3541C127.842 15.3464 128.805 15.7323 129.523 16.4285ZM89.306 16.8915C90.0804 17.099 90.7407 17.6057 91.1415 18.3001C91.5424 18.9944 91.651 19.8196 91.4435 20.594C91.2359 21.3684 90.7293 22.0287 90.0349 22.4296C89.3406 22.8304 88.5154 22.939 87.741 22.7315C86.9665 22.524 86.3063 22.0173 85.9054 21.3229C85.5045 20.6286 85.3959 19.8034 85.6035 19.029C85.811 18.2546 86.3177 17.5943 87.012 17.1934C87.7064 16.7926 88.5315 16.684 89.306 16.8915ZM72.605 16.7615C73.407 16.7615 74.1762 17.0801 74.7433 17.6472C75.3104 18.2143 75.629 18.9835 75.629 19.7855C75.629 20.5875 75.3104 21.3567 74.7433 21.9238C74.1762 22.4909 73.407 22.8095 72.605 22.8095C71.8031 22.8095 71.034 22.491 70.467 21.9239C69.9 21.3569 69.5815 20.5879 69.5815 19.786C69.5815 18.9841 69.9 18.2151 70.467 17.6481C71.034 17.081 71.8031 16.7615 72.605 16.7615ZM36.585 17.0655C36.8351 17.4989 36.9975 17.9773 37.0628 18.4734C37.1281 18.9695 37.095 19.4736 36.9655 19.9569C36.8359 20.4402 36.6125 20.8933 36.3078 21.2903C36.0032 21.6873 35.6233 22.0203 35.19 22.2705C34.3148 22.7757 33.2747 22.9126 32.2986 22.651C31.3224 22.3894 30.4902 21.7507 29.985 20.8755C29.4797 20.0003 29.3429 18.9602 29.6045 17.9841C29.8661 17.008 30.5048 16.1757 31.38 15.6705C32.2552 15.1653 33.2953 15.0284 34.2714 15.29C35.2475 15.5516 36.0797 16.1903 36.585 17.0655ZM65.57 13.9475C65.631 14.3816 65.606 14.8234 65.4963 15.2479C65.3866 15.6723 65.1944 16.0709 64.9306 16.421C64.6669 16.7712 64.3367 17.0659 63.959 17.2884C63.5814 17.511 63.1636 17.6569 62.7295 17.718C62.2954 17.7791 61.8535 17.754 61.4291 17.6443C61.0047 17.5346 60.6061 17.3424 60.2559 17.0786C59.5488 16.5459 59.0823 15.7542 58.959 14.8775C58.8512 14.0083 59.0893 13.1316 59.622 12.4364C60.1547 11.7413 60.9393 11.2833 61.8065 11.1612C62.6738 11.0392 63.5543 11.2629 64.2581 11.7842C64.962 12.3054 65.4337 13.0823 65.57 13.9475ZM98.36 11.0705C98.7698 11.2322 99.1436 11.4735 99.4598 11.7804C99.7759 12.0872 100.028 12.4537 100.202 12.8586C100.376 13.2634 100.468 13.6987 100.473 14.1393C100.477 14.5799 100.395 15.017 100.23 15.4256C100.065 15.8341 99.8207 16.206 99.5113 16.5196C99.2018 16.8333 98.8334 17.0827 98.4271 17.2532C98.0209 17.4238 97.5849 17.5123 97.1443 17.5135C96.7037 17.5148 96.2672 17.4288 95.86 17.2605C95.0461 16.9242 94.3981 16.2798 94.0571 15.4678C93.7162 14.6559 93.7099 13.7421 94.0397 12.9255C94.3695 12.1089 95.0086 11.4558 95.8178 11.1083C96.6271 10.7609 97.5408 10.7473 98.36 11.0705ZM80.107 8.6605C80.5451 8.70372 80.9701 8.8341 81.3571 9.04399C81.744 9.25387 82.0851 9.53901 82.3603 9.88265C82.6355 10.2263 82.8391 10.6215 82.9593 11.045C83.0795 11.4685 83.1138 11.9117 83.0602 12.3487C83.0066 12.7856 82.8662 13.2074 82.6472 13.5893C82.4281 13.9712 82.135 14.3054 81.7849 14.5723C81.4348 14.8393 81.0349 15.0335 80.6087 15.1436C80.1825 15.2537 79.7385 15.2775 79.303 15.2135C78.45 15.0882 77.6798 14.6343 77.157 13.9487C76.6343 13.2631 76.4004 12.4002 76.5054 11.5444C76.6104 10.6887 77.0459 9.90794 77.7189 9.36905C78.3919 8.83015 79.249 8.57586 80.107 8.6605ZM111.381 5.7665C111.823 6.01226 112.211 6.34343 112.523 6.74075C112.836 7.13806 113.066 7.59357 113.201 8.08073C113.335 8.5679 113.372 9.077 113.308 9.57836C113.244 10.0797 113.081 10.5633 112.828 11.0011C112.575 11.4388 112.238 11.8218 111.836 12.1279C111.433 12.4339 110.974 12.6569 110.485 12.7838C109.996 12.9107 109.486 12.939 108.986 12.867C108.486 12.795 108.005 12.6242 107.571 12.3645C106.713 11.8507 106.092 11.0203 105.84 10.0523C105.589 9.08438 105.729 8.05654 106.229 7.19057C106.729 6.3246 107.55 5.68994 108.513 5.42352C109.477 5.1571 110.507 5.28029 111.381 5.7665ZM54.351 7.9835C54.4913 8.47007 54.5332 8.97973 54.4742 9.48268C54.4152 9.98563 54.2566 10.4718 54.0076 10.9127C53.7585 11.3536 53.4241 11.7405 53.0238 12.0507C52.6235 12.3609 52.1654 12.5881 51.6763 12.7192C51.1871 12.8503 50.6768 12.8825 50.175 12.8141C49.6733 12.7456 49.1902 12.5778 48.7541 12.3205C48.3179 12.0632 47.9375 11.7215 47.6349 11.3154C47.3324 10.9093 47.1138 10.447 46.992 9.9555C46.7421 8.98335 46.8859 7.95185 47.3922 7.08515C47.8985 6.21844 48.7264 5.58655 49.696 5.32677C50.6655 5.06699 51.6984 5.20032 52.5702 5.69778C53.4421 6.19524 54.0813 7.01664 54.351 7.9835ZM91.097 0.1635C91.5885 0.285308 92.0508 0.50388 92.4569 0.806437C92.863 1.10899 93.2046 1.48947 93.462 1.92561C93.7193 2.36176 93.8871 2.84482 93.9555 3.34657C94.024 3.84831 93.9917 4.35867 93.8607 4.84781C93.7296 5.33695 93.5023 5.79505 93.1922 6.19533C92.882 6.59562 92.4951 6.93005 92.0542 7.17908C91.6133 7.42812 91.1271 7.58675 90.6242 7.64572C90.1212 7.70468 89.6115 7.66279 89.125 7.5225C88.1581 7.25287 87.3367 6.61258 86.8392 5.74076C86.3418 4.86895 86.2085 3.83604 86.4682 2.86649C86.728 1.89693 87.3599 1.06905 88.2266 0.562744C89.0933 0.0564362 90.1248 -0.0873959 91.097 0.1625V0.1635ZM70.053 0.000500037C70.5584 -0.00768971 71.0605 0.0847942 71.5298 0.272563C71.9992 0.460332 72.4265 0.739632 72.7869 1.09419C73.1472 1.44875 73.4334 1.87147 73.6287 2.33773C73.8241 2.80399 73.9247 3.30447 73.9247 3.81C73.9247 4.31553 73.8241 4.81601 73.6287 5.28227C73.4334 5.74853 73.1472 6.17126 72.7869 6.52581C72.4265 6.88037 71.9992 7.15967 71.5298 7.34744C71.0605 7.53521 70.5584 7.62769 70.053 7.6195C69.0533 7.6033 68.1001 7.19482 67.3989 6.48217C66.6977 5.76951 66.3047 4.80978 66.3047 3.81C66.3047 2.81022 66.6977 1.85049 67.3989 1.13783C68.1001 0.425177 69.0533 0.0166969 70.053 0.000500037Z" fill="url(#paint0_radial_149_150684)"/>
<path d="M79.4862 66.4961C75.9888 67.9711 67.6635 71.6298 67.5318 71.7511C67.242 72.0065 67.1959 72.2619 67.2354 73.2261C67.2486 73.705 67.2881 74.1392 67.3079 74.1902C67.3342 74.2413 70.1927 75.6652 73.6704 77.3509L79.9934 80.4158L86.3164 77.3509C93.601 73.8199 92.7711 74.369 92.7711 73.1111C92.7711 72.2555 92.692 71.949 92.4088 71.7064C92.2837 71.6042 89.794 70.4932 86.2439 68.9672C79.8814 66.2215 80.0131 66.2726 79.4862 66.4961Z" fill="black"/>
<path d="M86.3557 79.0229C80.6848 81.7686 80.0788 82.0495 79.8746 82.0112C79.7495 81.9857 76.8844 80.632 73.5187 78.9974C66.5634 75.6324 67.2155 75.8623 67.2155 76.7498C67.2155 77.1266 67.2418 77.267 67.334 77.3692C67.4855 77.5416 79.7692 83.5117 79.9668 83.5117C80.0525 83.5117 82.9242 82.1517 86.3557 80.4915C91.6578 77.9247 92.5997 77.4522 92.6853 77.2926C92.7972 77.0882 92.7841 76.156 92.6721 76.0475C92.6326 76.0092 90.3537 77.0819 86.3557 79.0229Z" fill="black"/>
<path d="M67.4394 79.413C67.2286 79.5471 67.2154 79.7323 67.2154 83.5761C67.2154 86.2004 67.2418 87.503 67.2879 87.7009C67.334 87.8606 67.4657 88.0904 67.604 88.2373C67.8214 88.4672 68.4076 88.7353 73.7689 91.0468C78.7154 93.1794 79.7429 93.6008 79.9931 93.6008C80.2302 93.6008 80.7703 93.3965 82.8253 92.5154C84.2546 91.9024 85.4138 91.3724 85.4731 91.2958C85.5784 91.1745 85.5916 90.9701 85.5916 89.0865C85.5916 87.752 85.618 86.973 85.6641 86.89C85.7365 86.7495 88.2921 85.4917 88.4962 85.4917C88.5621 85.4917 88.6807 85.5491 88.7531 85.6194C88.8783 85.7407 88.8848 85.8301 88.8848 87.4966C88.8848 88.4927 88.9112 89.3228 88.9507 89.4185C89.089 89.7633 89.2471 89.7442 90.459 89.2334C91.9805 88.5821 92.1978 88.4672 92.4284 88.199C92.5403 88.0713 92.6589 87.8414 92.6984 87.6882C92.7906 87.337 92.7972 79.828 92.705 79.5918C92.5535 79.2023 92.7116 79.132 86.27 82.2544C81.3434 84.6424 80.2105 85.1724 79.9931 85.1724C79.7758 85.1724 78.6429 84.6488 73.736 82.2672C70.4428 80.6709 67.6896 79.3619 67.6304 79.3619C67.5645 79.3619 67.4789 79.3875 67.4394 79.413Z" fill="black"/>
</g>
<defs>
<radialGradient id="paint0_radial_149_150684" cx="0" cy="0" r="1" gradientUnits="userSpaceOnUse" gradientTransform="translate(80.0098 80.0005) rotate(90.0052) scale(109.499 109.512)">
<stop stop-color="#007BFE" stop-opacity="0"/>
<stop offset="1" stop-color="#007BFE"/>
</radialGradient>
<clipPath id="clip0_149_150684">
<rect width="160" height="160" fill="white"/>
</clipPath>
</defs>
</svg>
