<?xml version="1.0" encoding="UTF-8"?>
<svg width="24" height="24" viewBox="0 0 24 24" fill="none" xmlns="http://www.w3.org/2000/svg">
  <path d="M12 6.5C15.79 6.5 19.17 8.63 20.82 12C20.23 13.85 19.18 15.43 17.85 16.6L16.3 15.05C17.2 14.22 17.93 13.19 18.42 12C17.13 9.76 14.71 8.3 12 8.3C11.22 8.3 10.44 8.43 9.72 8.65L8.33 7.26C9.47 6.77 10.72 6.5 12 6.5ZM2 3.77L4.28 6.05C2.77 7.33 1.57 9.06 1 11C2.73 14.89 7 17.5 12 17.5C13.55 17.5 15.03 17.2 16.38 16.66L19.73 20L21 18.73L3.27 1L2 2.27ZM7.53 9.3L9.08 10.85C9.03 11.22 9 11.61 9 12C9 13.66 10.34 15 12 15C12.39 15 12.78 14.97 13.15 14.92L14.7 16.47C13.89 16.81 12.96 17 12 17C9.24 17 7 14.76 7 12C7 11.04 7.19 10.11 7.53 9.3ZM11.84 9.02L14.99 12.17L15.01 12.01C15.01 10.35 13.67 9.01 12.01 9.01L11.84 9.02Z" fill="currentColor"/>
</svg> 