<svg width="32" height="32" viewBox="0 0 32 32" fill="none" xmlns="http://www.w3.org/2000/svg">
<path d="M15.4862 2.49538C11.9887 3.97035 3.66348 7.62905 3.53175 7.75037C3.24194 8.00578 3.19584 8.26118 3.23536 9.22534C3.24853 9.70423 3.28805 10.1384 3.30781 10.1895C3.33415 10.2406 6.19267 11.6645 9.67032 13.3502L15.9933 16.415L22.3163 13.3502C29.6009 9.81916 28.771 10.3683 28.771 9.11041C28.771 8.2548 28.692 7.94831 28.4088 7.70567C28.2836 7.60351 25.7939 6.49249 22.2438 4.96644C15.8813 2.22082 16.0131 2.2719 15.4862 2.49538Z" fill="white"/>
<path d="M22.3557 15.0234C16.6848 17.7691 16.0788 18.05 15.8746 18.0117C15.7495 17.9862 12.8844 16.6325 9.51871 14.9979C2.56342 11.6329 3.21548 11.8628 3.21548 12.7503C3.21548 13.127 3.24182 13.2675 3.33403 13.3697C3.48552 13.5421 15.7692 19.5122 15.9668 19.5122C16.0525 19.5122 18.9242 18.1522 22.3557 16.492C27.6578 13.9252 28.5997 13.4527 28.6853 13.2931C28.7972 13.0887 28.7841 12.1565 28.6721 12.0479C28.6326 12.0096 26.3537 13.0823 22.3557 15.0234Z" fill="white"/>
<path d="M3.43931 15.4127C3.22854 15.5468 3.21537 15.732 3.21537 19.5759C3.21537 22.2002 3.24171 23.5028 3.28782 23.7007C3.33392 23.8603 3.46565 24.0902 3.60397 24.237C3.82132 24.4669 4.40751 24.7351 9.76888 27.0465C14.7153 29.1792 15.7428 29.6006 15.9931 29.6006C16.2302 29.6006 16.7703 29.3963 18.8253 28.5151C20.2545 27.9021 21.4137 27.3722 21.473 27.2955C21.5784 27.1742 21.5916 26.9699 21.5916 25.0863C21.5916 23.7518 21.6179 22.9728 21.664 22.8898C21.7365 22.7493 24.292 21.4914 24.4962 21.4914C24.5621 21.4914 24.6806 21.5489 24.7531 21.6191C24.8782 21.7404 24.8848 21.8298 24.8848 23.4964C24.8848 24.4925 24.9111 25.3225 24.9507 25.4183C25.089 25.7631 25.247 25.7439 26.459 25.2331C27.9804 24.5818 28.1978 24.4669 28.4283 24.1987C28.5403 24.071 28.6588 23.8412 28.6983 23.6879C28.7906 23.3367 28.7971 15.8278 28.7049 15.5915C28.5534 15.202 28.7115 15.1318 22.27 18.2541C17.3433 20.6422 16.2104 21.1722 15.9931 21.1722C15.7757 21.1722 14.6429 20.6486 9.73595 18.2669C6.44273 16.6706 3.68959 15.3617 3.63031 15.3617C3.56445 15.3617 3.47882 15.3872 3.43931 15.4127Z" fill="white"/>
</svg>
