<svg width="20" height="19" viewBox="0 0 20 19" fill="none" xmlns="http://www.w3.org/2000/svg">
<path d="M12.1333 16.689V11.2021C12.1333 11.0085 12.0752 10.8563 11.959 10.7456C11.8483 10.6294 11.6961 10.5713 11.5024 10.5713H8.48926C8.30111 10.5713 8.14616 10.6294 8.02441 10.7456C7.9082 10.8563 7.8501 11.0085 7.8501 11.2021V16.689H12.1333ZM2.67871 16.1909V9.6167L9.50195 3.89746C9.83398 3.61523 10.166 3.61523 10.498 3.89746L17.3213 9.6167V16.1909C17.3213 16.772 17.1553 17.223 16.8232 17.5439C16.4967 17.8649 16.043 18.0254 15.4619 18.0254H4.54639C3.9598 18.0254 3.50049 17.8649 3.16846 17.5439C2.84196 17.223 2.67871 16.772 2.67871 16.1909ZM0.0888672 8.78662C0.0888672 8.5708 0.177409 8.39095 0.354492 8.24707L9.00391 0.983887C9.3138 0.723796 9.64583 0.59375 10 0.59375C10.3597 0.59375 10.6945 0.723796 11.0044 0.983887L19.6455 8.24707C19.8171 8.39095 19.9028 8.5791 19.9028 8.81152C19.9028 9.01074 19.8337 9.16846 19.6953 9.28467C19.557 9.39535 19.391 9.45068 19.1973 9.45068C19.0811 9.45068 18.9731 9.42301 18.8735 9.36768C18.7795 9.31234 18.6909 9.25146 18.6079 9.18506L10.2988 2.2124C10.2048 2.12939 10.1051 2.08789 10 2.08789C9.90039 2.08789 9.80355 2.12939 9.70947 2.2124L1.40039 9.18506C1.31185 9.25146 1.21777 9.31234 1.11816 9.36768C1.02409 9.42301 0.918945 9.45068 0.802734 9.45068C0.58138 9.45068 0.407064 9.38428 0.279785 9.25146C0.152507 9.11312 0.0888672 8.95817 0.0888672 8.78662ZM15.2378 5.04297V2.96777C15.2378 2.78516 15.2931 2.64128 15.4038 2.53613C15.5145 2.42546 15.6584 2.37012 15.8354 2.37012H16.7236C16.9062 2.37012 17.0501 2.42546 17.1553 2.53613C17.266 2.64128 17.3213 2.78516 17.3213 2.96777V6.80273L15.2378 5.04297Z" fill="black" fill-opacity="0.75"/>
</svg>
