<svg width="24" height="13" viewBox="0 0 24 13" fill="none" xmlns="http://www.w3.org/2000/svg">
<path d="M13.0938 5.85C12.5688 5.85 12.0875 5.2125 11.3375 5.04375L13.8563 1.75C14.6438 0.7125 15.8188 0.71875 16.6063 1.74375L19.125 5.04375C18.3625 5.20625 17.8938 5.85 17.3688 5.85C16.7625 5.85 16.2375 4.9875 15.2313 4.9875C14.25 4.9875 13.7063 5.85 13.0938 5.85ZM5.16875 7.40625C4.69375 7.40625 4.34375 6.875 3.69375 6.76875L5.61875 4.34375C6.41875 3.325 7.55 3.31875 8.35 4.34375L9.56875 5.86875L8.55 7.19375C8.50625 7.225 8.46875 7.2375 8.425 7.2375C8.175 7.2375 7.69375 6.6875 6.99375 6.6875C6.15 6.6875 5.7 7.40625 5.16875 7.40625ZM8.575 12.275C7.20625 12.275 6.84375 10.9375 7.5375 10.0312L10.525 6.1125C10.6875 6 10.8125 5.95 10.9625 5.95C11.4938 5.95 11.975 6.79375 13.0938 6.79375C14.2313 6.79375 14.6813 5.93125 15.2313 5.93125C15.7813 5.93125 16.2313 6.79375 17.3688 6.79375C18.4688 6.79375 18.925 5.99375 19.4188 5.95625C19.5813 5.95625 19.75 6.11875 20.0188 6.21875L22.925 10.025C23.6188 10.9312 23.2563 12.275 21.8813 12.275H8.575ZM2.03125 12.275C0.7875 12.275 0.3625 10.9875 1.0875 10.0625L2.86875 7.83125C3.075 7.64375 3.24375 7.55625 3.425 7.55625C3.89375 7.55625 4.25625 8.21875 5.16875 8.21875C6.15 8.21875 6.53125 7.5 6.99375 7.5C7.325 7.5 7.54375 7.81875 7.98125 7.95L6.81875 9.475C6.1375 10.375 6.13125 11.5 6.68125 12.275H2.03125Z" fill="white"/>
</svg>
