<svg width="24" height="24" viewBox="0 0 24 24" fill="none" xmlns="http://www.w3.org/2000/svg">
<path d="M11.6146 1.87178C8.99154 2.97801 2.74758 5.72203 2.64879 5.81302C2.43143 6.00458 2.39685 6.19613 2.42649 6.91925C2.43637 7.27842 2.46601 7.60406 2.48083 7.64237C2.50059 7.68068 4.64448 8.7486 7.25271 10.0129L11.995 12.3115L16.7372 10.0129C22.2007 7.36462 21.5782 7.77646 21.5782 6.83305C21.5782 6.19134 21.519 5.96148 21.3065 5.7795C21.2127 5.70288 19.3454 4.86961 16.6829 3.72507C11.911 1.66586 12.0098 1.70417 11.6146 1.87178Z" fill="white"/>
<path d="M16.7668 11.2672C12.5136 13.3264 12.0591 13.5371 11.906 13.5084C11.8121 13.4892 9.66329 12.474 7.13903 11.2481C1.92256 8.72432 2.41161 8.89672 2.41161 9.56237C2.41161 9.84492 2.43137 9.95027 2.50052 10.0269C2.61414 10.1562 11.8269 14.6338 11.9751 14.6338C12.0394 14.6338 14.1931 13.6138 16.7668 12.3687C20.7433 10.4435 21.4497 10.0891 21.514 9.96943C21.5979 9.81618 21.5881 9.11701 21.5041 9.0356C21.4744 9.00686 19.7653 9.81139 16.7668 11.2672Z" fill="white"/>
<path d="M2.57945 11.5593C2.42138 11.6599 2.4115 11.7988 2.4115 14.6817C2.4115 16.6499 2.43126 17.6268 2.46584 17.7753C2.50042 17.895 2.59921 18.0674 2.70295 18.1775C2.86596 18.3499 3.30561 18.5511 7.32664 20.2846C11.0365 21.8841 11.8071 22.2002 11.9948 22.2002C12.1726 22.2002 12.5777 22.047 14.1189 21.3861C15.1909 20.9264 16.0603 20.5289 16.1047 20.4714C16.1838 20.3804 16.1936 20.2272 16.1936 18.8145C16.1936 17.8136 16.2134 17.2293 16.248 17.1671C16.3023 17.0617 18.219 16.1183 18.3721 16.1183C18.4215 16.1183 18.5104 16.1614 18.5648 16.2141C18.6586 16.3051 18.6636 16.3721 18.6636 17.622C18.6636 18.3691 18.6833 18.9916 18.713 19.0635C18.8167 19.3221 18.9353 19.3077 19.8442 18.9246C20.9853 18.4361 21.1483 18.3499 21.3212 18.1488C21.4052 18.053 21.4941 17.8806 21.5237 17.7657C21.5929 17.5023 21.5978 11.8706 21.5287 11.6934C21.4151 11.4013 21.5336 11.3486 16.7025 13.6904C13.0075 15.4814 12.1578 15.8789 11.9948 15.8789C11.8318 15.8789 10.9821 15.4862 7.30194 13.6999C4.83202 12.5027 2.76717 11.521 2.72271 11.521C2.67331 11.521 2.60909 11.5402 2.57945 11.5593Z" fill="white"/>
</svg>
