<svg width="25" height="24" viewBox="0 0 25 24" fill="none" xmlns="http://www.w3.org/2000/svg">
<path d="M5.67282 21.7672C6.92514 16.572 5.43852 16.3943 5.43852 13.8735C5.43852 13.0332 6.10104 11.0214 6.19799 10.0438C6.42421 7.79773 5.86673 8.39561 7.50687 6.73124L7.60382 4.42051C8.42793 3.62872 8.83998 2.91772 9.84992 3.16819C10.464 4.99415 9.30051 4.42051 9.1874 6.55349C9.87415 7.46647 10.3347 7.55535 10.8518 8.70263C11.5062 10.1569 11.0376 10.1408 12.2738 11.3608C14.0916 11.5709 15.1905 11.5789 16.4913 10.2701C16.6286 8.8723 15.8207 8.9935 16.6448 7.70886C17.2103 6.82819 17.7678 6.3515 18.8262 6.707C19.1736 8.08051 17.6143 8.3633 18.0991 9.89032C20.1917 10.1004 20.6764 7.21601 22.2762 7.07058C22.2762 10.1489 19.0605 10.5528 18.9878 13.0575C18.9393 14.6249 20.329 18.9393 21.7348 19.8604C22.971 17.9617 24.3041 15.8934 24.4576 13.5988C25.5322 -2.05924 4.8164 -4.91129 0.881689 8.79959C0.679702 9.5025 0.55851 10.2135 0.501953 10.9245V12.7424C0.849371 17.2507 3.62871 21.2097 5.67282 21.7672Z" fill="white"/>
<path d="M11.7325 23.8676C17.3316 24.5301 16.7418 22.8011 15.6349 16.4264C15.1986 13.9137 14.6896 12.5886 11.7083 12.823C9.84997 15.0287 10.7872 19.3269 10.8518 21.2095C10.9003 22.6961 10.6498 22.793 11.7325 23.8676ZM18.1718 22.3325C19.1091 22.2194 19.2706 22.0255 20.0301 21.4195C20.1513 20.1349 19.2707 18.0665 17.8971 17.6545C17.2508 18.8987 17.4366 21.1125 18.1718 22.3325ZM8.94507 23.399C8.94507 21.8316 9.13898 18.5917 8.33103 17.4767C7.25646 17.7918 7.58772 18.7129 7.57964 20.6762C7.57156 22.1144 7.30494 23.2536 8.94507 23.399Z" fill="white"/>
</svg>
