<svg width="48" height="48" viewBox="0 0 48 48" fill="none" xmlns="http://www.w3.org/2000/svg">
<path d="M24.0872 5.76001L25.4603 8.86017L25.5812 9.13569L25.6753 9.34849L29.0196 16.913L29.1137 17.1258L31.6539 22.8669L31.7681 23.1245L37.8542 36.8803H35.3051L35.1057 36.4368L31.1387 27.432L31.0401 27.2035L29.7947 24.3789L28.2356 20.8352L28.1348 20.6067L24.4321 12.1955L24.3291 11.9693L24.0872 11.4138L23.8497 11.9559L23.7332 12.2157L20.0507 20.5843L19.9566 20.7949L18.3774 24.3834L17.1387 27.1968L17.0468 27.4051L13.0731 36.4346L12.8737 36.8803H10.3201L16.3323 23.2925L16.5899 22.7079L19.0248 17.2064L19.2443 16.7091L22.4878 9.37537L22.6872 8.92513L22.7028 8.88929L24.0872 5.76001Z" fill="black"/>
<path d="M24.0892 31.4258L26.4905 36.8779L26.4883 36.8824L24.0892 42.3346L21.6879 36.8824L24.0892 31.4258Z" fill="#F0BE78"/>
</svg>
