<svg width="16" height="16" viewBox="0 0 16 16" fill="none" xmlns="http://www.w3.org/2000/svg">
<path d="M2.77881 15.6934C1.42301 15.6934 0.745117 15.2507 0.745117 14.3652C0.745117 13.8229 0.911133 13.2446 1.24316 12.6304C1.5752 12.0161 2.05387 11.4378 2.6792 10.8955C3.31006 10.3477 4.07096 9.90218 4.96191 9.55908C5.8584 9.21598 6.87109 9.04443 8 9.04443C9.12337 9.04443 10.1305 9.21598 11.0215 9.55908C11.918 9.90218 12.6789 10.3477 13.3042 10.8955C13.9351 11.4378 14.4165 12.0161 14.7485 12.6304C15.0806 13.2446 15.2466 13.8229 15.2466 14.3652C15.2466 15.2507 14.5687 15.6934 13.2129 15.6934H2.77881ZM2.38867 14.4399H13.6113C13.7165 14.4399 13.7912 14.4233 13.8354 14.3901C13.8853 14.3569 13.9102 14.2961 13.9102 14.2075C13.9102 13.8644 13.7801 13.4715 13.52 13.0288C13.2655 12.5861 12.8864 12.1572 12.3828 11.7422C11.8792 11.3271 11.2594 10.984 10.5234 10.7129C9.79297 10.4362 8.95182 10.2979 8 10.2979C7.04818 10.2979 6.20426 10.4362 5.46826 10.7129C4.73226 10.984 4.11247 11.3271 3.60889 11.7422C3.10531 12.1572 2.72347 12.5861 2.46338 13.0288C2.20882 13.4715 2.08154 13.8644 2.08154 14.2075C2.08154 14.2961 2.10368 14.3569 2.14795 14.3901C2.19775 14.4233 2.27799 14.4399 2.38867 14.4399ZM8 8.00684C7.34147 8.00684 6.74105 7.83252 6.19873 7.48389C5.65641 7.13525 5.22201 6.66764 4.89551 6.08105C4.57454 5.48893 4.41406 4.8387 4.41406 4.13037C4.41406 3.42757 4.57454 2.78841 4.89551 2.21289C5.22201 1.63737 5.65641 1.17806 6.19873 0.834961C6.74105 0.491862 7.34147 0.320312 8 0.320312C8.66406 0.320312 9.26725 0.489095 9.80957 0.82666C10.3519 1.16423 10.7835 1.62077 11.1045 2.19629C11.4255 2.76628 11.5859 3.40544 11.5859 4.11377C11.5859 4.82764 11.4227 5.48063 11.0962 6.07275C10.7752 6.65934 10.3436 7.12972 9.80127 7.48389C9.25895 7.83252 8.65853 8.00684 8 8.00684ZM8 6.75342C8.40951 6.75342 8.78304 6.63721 9.12061 6.40479C9.4637 6.16683 9.73763 5.84863 9.94238 5.4502C10.1471 5.04622 10.2495 4.60075 10.2495 4.11377C10.2495 3.63232 10.1471 3.20068 9.94238 2.81885C9.74316 2.43148 9.47201 2.12712 9.12891 1.90576C8.79134 1.68441 8.41504 1.57373 8 1.57373C7.59049 1.57373 7.21419 1.68717 6.87109 1.91406C6.53353 2.13542 6.26237 2.43978 6.05762 2.82715C5.85286 3.21452 5.75049 3.64893 5.75049 4.13037C5.75049 4.61735 5.85286 5.06006 6.05762 5.4585C6.2679 5.85693 6.54183 6.17236 6.87939 6.40479C7.22249 6.63721 7.59603 6.75342 8 6.75342Z" fill="black" fill-opacity="0.75"/>
</svg>
