<svg width="22" height="22" viewBox="0 0 22 22" fill="none" xmlns="http://www.w3.org/2000/svg">
<path d="M11 18.8677C9.9209 18.8677 8.9082 18.6629 7.96191 18.2534C7.01562 17.8494 6.18278 17.2878 5.46338 16.5684C4.74398 15.8434 4.17952 15.0078 3.77002 14.0615C3.36605 13.1097 3.16406 12.0942 3.16406 11.0151C3.16406 9.93604 3.36605 8.92334 3.77002 7.97705C4.17952 7.02523 4.74398 6.18962 5.46338 5.47021C6.18278 4.74528 7.01562 4.18083 7.96191 3.77686C8.9082 3.36735 9.9209 3.1626 11 3.1626C12.0791 3.1626 13.0918 3.36735 14.0381 3.77686C14.9844 4.18083 15.8172 4.74528 16.5366 5.47021C17.256 6.18962 17.8177 7.02523 18.2217 7.97705C18.6312 8.92334 18.8359 9.93604 18.8359 11.0151C18.8359 12.0942 18.6312 13.1097 18.2217 14.0615C17.8177 15.0078 17.256 15.8434 16.5366 16.5684C15.8172 17.2878 14.9844 17.8494 14.0381 18.2534C13.0918 18.6629 12.0791 18.8677 11 18.8677ZM11 17.5146C11.902 17.5146 12.7404 17.3486 13.5151 17.0166C14.2954 16.6846 14.9788 16.2225 15.5654 15.6304C16.152 15.0382 16.6113 14.3493 16.9434 13.5635C17.2754 12.7721 17.4414 11.9227 17.4414 11.0151C17.4414 10.1076 17.2754 9.2609 16.9434 8.4751C16.6113 7.68929 16.152 7.00033 15.5654 6.4082C14.9788 5.81055 14.2954 5.3457 13.5151 5.01367C12.7404 4.68164 11.902 4.51562 11 4.51562C10.098 4.51562 9.25684 4.68164 8.47656 5.01367C7.70182 5.3457 7.02116 5.81055 6.43457 6.4082C5.84798 7.00033 5.38867 7.68929 5.05664 8.4751C4.72461 9.2609 4.55859 10.1076 4.55859 11.0151C4.55859 11.9227 4.72461 12.7721 5.05664 13.5635C5.38867 14.3493 5.84798 15.0382 6.43457 15.6304C7.02116 16.2225 7.70182 16.6846 8.47656 17.0166C9.25684 17.3486 10.098 17.5146 11 17.5146ZM11 21.1089C10.834 21.1089 10.6929 21.0508 10.5767 20.9346C10.4604 20.8184 10.4023 20.6772 10.4023 20.5112V14.8916C10.4023 14.7256 10.4604 14.5872 10.5767 14.4766C10.6929 14.3604 10.834 14.3022 11 14.3022C11.166 14.3022 11.3044 14.3604 11.415 14.4766C11.5312 14.5872 11.5894 14.7256 11.5894 14.8916V20.5112C11.5894 20.6772 11.5312 20.8184 11.415 20.9346C11.3044 21.0508 11.166 21.1089 11 21.1089ZM1.50391 11.6128C1.33789 11.6128 1.19678 11.5547 1.08057 11.4385C0.964355 11.3223 0.90625 11.1812 0.90625 11.0151C0.90625 10.8491 0.964355 10.7108 1.08057 10.6001C1.19678 10.4839 1.33789 10.4258 1.50391 10.4258H7.12354C7.28955 10.4258 7.43066 10.4839 7.54688 10.6001C7.66309 10.7108 7.72119 10.8491 7.72119 11.0151C7.72119 11.1812 7.66309 11.3223 7.54688 11.4385C7.43066 11.5547 7.28955 11.6128 7.12354 11.6128H1.50391ZM11 7.73633C10.834 7.73633 10.6929 7.67822 10.5767 7.56201C10.4604 7.4458 10.4023 7.30469 10.4023 7.13867V1.51904C10.4023 1.35303 10.4604 1.21191 10.5767 1.0957C10.6929 0.979492 10.834 0.921387 11 0.921387C11.166 0.921387 11.3044 0.979492 11.415 1.0957C11.5312 1.21191 11.5894 1.35303 11.5894 1.51904V7.13867C11.5894 7.30469 11.5312 7.4458 11.415 7.56201C11.3044 7.67822 11.166 7.73633 11 7.73633ZM14.8765 11.6128C14.7104 11.6128 14.5693 11.5547 14.4531 11.4385C14.3369 11.3223 14.2788 11.1812 14.2788 11.0151C14.2788 10.8491 14.3369 10.7108 14.4531 10.6001C14.5693 10.4839 14.7104 10.4258 14.8765 10.4258H20.4961C20.6621 10.4258 20.8032 10.4839 20.9194 10.6001C21.0356 10.7108 21.0938 10.8491 21.0938 11.0151C21.0938 11.1812 21.0356 11.3223 20.9194 11.4385C20.8032 11.5547 20.6621 11.6128 20.4961 11.6128H14.8765Z" fill="black" fill-opacity="0.75"/>
</svg>
