<svg width="20" height="22" viewBox="0 0 20 22" fill="none" xmlns="http://www.w3.org/2000/svg">
<path d="M9.61462 0.871778C6.99157 1.97801 0.747612 4.72203 0.648816 4.81302C0.431463 5.00458 0.396884 5.19613 0.426523 5.91925C0.436403 6.27842 0.466042 6.60406 0.480861 6.64237C0.500621 6.68068 2.64451 7.7486 5.25274 9.01286L9.99499 11.3115L14.7372 9.01286C20.2007 6.36462 19.5783 6.77646 19.5783 5.83305C19.5783 5.19134 19.519 4.96148 19.3066 4.7795C19.2127 4.70288 17.3455 3.86961 14.6829 2.72507C9.91101 0.665856 10.0098 0.704167 9.61462 0.871778Z" fill="white"/>
<path d="M14.7668 10.2672C10.5136 12.3264 10.0591 12.5371 9.90598 12.5084C9.81212 12.4892 7.66329 11.474 5.13903 10.2481C-0.0774375 7.72432 0.411606 7.89672 0.411606 8.56237C0.411606 8.84492 0.431366 8.95027 0.500523 9.02689C0.61414 9.15619 9.82694 13.6338 9.97513 13.6338C10.0394 13.6338 12.1931 12.6138 14.7668 11.3687C18.7433 9.44352 19.4497 9.08915 19.514 8.96943C19.5979 8.81618 19.5881 8.11701 19.5041 8.0356C19.4744 8.00686 17.7653 8.81139 14.7668 10.2672Z" fill="white"/>
<path d="M0.579484 10.5593C0.421409 10.6599 0.41153 10.7988 0.41153 13.6817C0.41153 15.6499 0.431289 16.6268 0.465868 16.7753C0.500447 16.895 0.599243 17.0674 0.70298 17.1775C0.865995 17.3499 1.30564 17.5511 5.32667 19.2846C9.03649 20.8841 9.8071 21.2002 9.99481 21.2002C10.1726 21.2002 10.5777 21.047 12.1189 20.3861C13.1909 19.9264 14.0603 19.5289 14.1048 19.4714C14.1838 19.3804 14.1937 19.2272 14.1937 17.8145C14.1937 16.8136 14.2134 16.2293 14.248 16.1671C14.3024 16.0617 16.219 15.1183 16.3721 15.1183C16.4215 15.1183 16.5105 15.1614 16.5648 15.2141C16.6587 15.3051 16.6636 15.3721 16.6636 16.622C16.6636 17.3691 16.6834 17.9916 16.713 18.0635C16.8167 18.3221 16.9353 18.3077 17.8442 17.9246C18.9853 17.4361 19.1483 17.3499 19.3212 17.1488C19.4052 17.053 19.4941 16.8806 19.5238 16.7657C19.5929 16.5023 19.5979 10.8706 19.5287 10.6934C19.4151 10.4013 19.5336 10.3486 14.7025 12.6904C11.0075 14.4814 10.1578 14.8789 9.99481 14.8789C9.8318 14.8789 8.98215 14.4862 5.30197 12.6999C2.83205 11.5027 0.767198 10.521 0.722739 10.521C0.673341 10.521 0.609123 10.5402 0.579484 10.5593Z" fill="white"/>
</svg>
