<svg width="22" height="14" viewBox="0 0 22 14" fill="none" xmlns="http://www.w3.org/2000/svg">
<path d="M10.9141 13.9609C4.84375 13.9609 0.476562 8.92188 0.476562 7.36719C0.476562 5.80469 4.85938 0.78125 10.9141 0.78125C17.0156 0.78125 21.3438 5.80469 21.3438 7.36719C21.3438 8.92188 17.0391 13.9609 10.9141 13.9609ZM10.9141 11.6953C13.3047 11.6953 15.25 9.71875 15.25 7.36719C15.25 4.95312 13.3047 3.04688 10.9141 3.04688C8.5 3.04688 6.5625 4.95312 6.57031 7.36719C6.57812 9.71875 8.5 11.6953 10.9141 11.6953ZM10.9219 8.84375C10.1016 8.84375 9.42188 8.17188 9.42188 7.36719C9.42188 6.55469 10.1016 5.89062 10.9219 5.89062C11.7266 5.89062 12.3984 6.55469 12.3984 7.36719C12.3984 8.17188 11.7266 8.84375 10.9219 8.84375Z" fill="#222222"/>
</svg>
