<svg width="24" height="25" viewBox="0 0 24 25" fill="none" xmlns="http://www.w3.org/2000/svg">
<path d="M12 24.4922C5.47266 24.4922 0.046875 19.0664 0.046875 12.5391C0.046875 6 5.46094 0.585938 11.9883 0.585938C18.5273 0.585938 23.9531 6 23.9531 12.5391C23.9531 19.0664 18.5391 24.4922 12 24.4922ZM12 22.5C17.5312 22.5 21.9609 18.0703 21.9609 12.5391C21.9609 7.00781 17.5195 2.57812 11.9883 2.57812C6.45703 2.57812 2.05078 7.00781 2.05078 12.5391C2.05078 18.0703 6.46875 22.5 12 22.5ZM10.7109 18.1055C10.3242 18.1055 10.0078 17.9414 9.71484 17.5547L6.85547 14.0391C6.69141 13.8164 6.58594 13.5703 6.58594 13.3125C6.58594 12.7969 6.98438 12.3867 7.48828 12.3867C7.81641 12.3867 8.07422 12.4805 8.35547 12.8555L10.6641 15.8438L15.5273 8.03906C15.75 7.69922 16.043 7.51172 16.3359 7.51172C16.8281 7.51172 17.2969 7.85156 17.2969 8.37891C17.2969 8.63672 17.1445 8.89453 17.0156 9.12891L11.6602 17.5547C11.4258 17.918 11.0977 18.1055 10.7109 18.1055Z" fill="#35C759"/>
</svg>
