<svg width="16" height="17" viewBox="0 0 16 17" fill="none" xmlns="http://www.w3.org/2000/svg">
<path d="M0.605469 15.957C0.289062 15.6523 0.300781 15.1367 0.605469 14.832L6.875 8.5625L0.605469 2.28125C0.300781 1.97656 0.289062 1.47266 0.605469 1.16797C0.910156 0.851562 1.42578 0.863281 1.73047 1.16797L8 7.4375L14.2695 1.16797C14.5742 0.863281 15.0898 0.851562 15.3945 1.16797C15.7109 1.47266 15.6992 1.97656 15.3945 2.28125L9.125 8.5625L15.3945 14.832C15.6992 15.1367 15.7109 15.6523 15.3945 15.957C15.0898 16.2734 14.5742 16.2617 14.2695 15.957L8 9.6875L1.73047 15.957C1.42578 16.2617 0.910156 16.2734 0.605469 15.957Z" fill="black"/>
</svg>
