<svg width="80" height="79" viewBox="0 0 80 79" fill="none" xmlns="http://www.w3.org/2000/svg">
<path d="M40 78.9766C18.5547 78.9766 0.820312 61.2422 0.820312 39.7969C0.820312 18.3125 18.5156 0.617188 39.9609 0.617188C61.4453 0.617188 79.1797 18.3125 79.1797 39.7969C79.1797 61.2422 61.4453 78.9766 40 78.9766ZM35.7031 58.7031C36.7188 58.7031 37.5781 58.2344 38.2031 57.2578L57.5 27.0625C57.8906 26.4766 58.2422 25.7734 58.2422 25.1484C58.2422 23.7422 56.9922 22.8047 55.7031 22.8047C54.8828 22.8047 54.1016 23.3125 53.5547 24.2109L35.5859 52.6484L26.4062 41.3594C25.7031 40.4219 25 40.1094 24.1406 40.1094C22.8125 40.1094 21.7188 41.2031 21.7188 42.5703C21.7188 43.2734 22.0312 43.9375 22.4609 44.5625L33.0859 57.2578C33.8672 58.2734 34.6875 58.7031 35.7031 58.7031Z" fill="#35C759"/>
</svg>
