<svg width="100" height="50" viewBox="0 0 100 50" fill="none" xmlns="http://www.w3.org/2000/svg">
<path d="M89.48 25.9999C87.28 25.9999 86.12 24.9599 85.44 24.1999C84.8 23.4399 84.48 22.7599 84.36 22.3199L84.24 21.9599L85.88 21.1999L86 21.5999C86.2 22.1999 86.6 22.7599 86.8 23.0399C87.4 23.7999 88.44 24.2799 89.52 24.2799C91.48 24.2799 93 22.8399 93 20.9599C93 20.0399 92.56 19.3199 91.6 18.7599C91.16 18.5199 90.24 18.0399 88.92 17.3999C87.36 16.6399 86.44 16.1599 85.84 15.1199C85.44 14.4799 85.28 13.8399 85.28 13.0799C85.28 10.9199 86.8 8.67993 89.76 8.67993C91.6 8.67993 93.16 9.59993 94.04 11.1999L94.16 11.4799L92.76 12.6399L92.56 12.1999C91.76 10.6799 90.44 10.4399 89.76 10.4399C87.96 10.4399 87.16 11.7599 87.16 13.0399C87.16 14.4399 88.04 14.9199 89.72 15.7599C89.72 15.7599 90.32 16.0399 90.56 16.1599C91.64 16.6799 92.32 16.9999 93 17.4799C93.8 18.0399 94.88 18.9999 94.88 20.9199C94.88 23.7999 92.52 25.9999 89.48 25.9999Z" fill="black"/>
<path d="M18.96 25.88L13 12.24L6.99999 25.88H5.03999L13 7.84003L20.96 25.88H18.96Z" fill="black"/>
<path d="M75.52 25.88L69.56 12.24L63.56 25.88H61.56L69.56 7.83997L77.52 25.88H75.52Z" fill="black"/>
<path d="M30.04 25.7999V10.7199H25.84V8.9599H36.04V10.7199H31.88V25.7999H30.04Z" fill="black"/>
<path d="M45.4 25.7199V8.87991H47.28V23.9999H54.88L54.16 25.7199H45.4Z" fill="black"/>
<path d="M55.16 42.04L55.4 41.92C55.6 41.84 55.88 41.4 55.88 40.96V37.56H55.28V36.64H56.96V40.92C56.96 41.92 56.24 42.44 55.76 42.56H55.64L55.16 42.04ZM62.16 42.04L62.4 41.96C62.6 41.84 62.88 41.44 62.88 41V37.6H62.28V36.68H63.92V40.96C63.92 41.92 63.24 42.44 62.76 42.56L62.64 42.6L62.16 42.04ZM49.72 41.64L49.44 41.04H46.8L46.52 41.64H45.44L47.72 36.64H48.56L50.84 41.64H49.72ZM49.04 40.12L48.16 38.12L47.24 40.12H49.04ZM39.4 41.64V39.64H36.76V41.64H35.68V36.64H36.76V38.64H39.4V36.64H40.48V41.64H39.4Z" fill="black"/>
<path d="M14.48 25.9199L13 29.2399L11.52 25.9199L13 22.5599L14.48 25.9199Z" fill="#F0BE78"/>
</svg>
