<svg width="7" height="11" viewBox="0 0 7 11" fill="none" xmlns="http://www.w3.org/2000/svg">
<path d="M6.61523 5.76953C6.61523 5.91602 6.55664 6.04492 6.44531 6.15625L1.80469 10.6973C1.69922 10.8027 1.57031 10.8555 1.41797 10.8555C1.11914 10.8555 0.884766 10.627 0.884766 10.3223C0.884766 10.1699 0.943359 10.041 1.03711 9.94141L5.30273 5.76953L1.03711 1.59766C0.943359 1.49805 0.884766 1.36328 0.884766 1.2168C0.884766 0.912109 1.11914 0.683594 1.41797 0.683594C1.57031 0.683594 1.69922 0.736328 1.80469 0.835938L6.44531 5.38281C6.55664 5.48828 6.61523 5.62305 6.61523 5.76953Z" fill="#222222"/>
</svg>
