<svg width="32" height="33" viewBox="0 0 32 33" fill="none" xmlns="http://www.w3.org/2000/svg">
<path d="M16 32.6562C7.29688 32.6562 0.0625 25.4219 0.0625 16.7188C0.0625 8 7.28125 0.78125 15.9844 0.78125C24.7031 0.78125 31.9375 8 31.9375 16.7188C31.9375 25.4219 24.7188 32.6562 16 32.6562ZM16 19.625C16.7812 19.625 17.2344 19.1875 17.25 18.3438L17.4688 9.84375C17.4844 9.01562 16.8438 8.40625 15.9844 8.40625C15.1094 8.40625 14.5 9 14.5156 9.82812L14.7188 18.3438C14.7344 19.1719 15.1875 19.625 16 19.625ZM16 24.8594C16.9375 24.8594 17.75 24.125 17.75 23.1875C17.75 22.25 16.9531 21.5 16 21.5C15.0469 21.5 14.25 22.2656 14.25 23.1875C14.25 24.1094 15.0625 24.8594 16 24.8594Z" fill="#FF453A"/>
<path d="M16 32.6562C7.29688 32.6562 0.0625 25.4219 0.0625 16.7188C0.0625 8 7.28125 0.78125 15.9844 0.78125C24.7031 0.78125 31.9375 8 31.9375 16.7188C31.9375 25.4219 24.7188 32.6562 16 32.6562ZM16 19.625C16.7812 19.625 17.2344 19.1875 17.25 18.3438L17.4688 9.84375C17.4844 9.01562 16.8438 8.40625 15.9844 8.40625C15.1094 8.40625 14.5 9 14.5156 9.82812L14.7188 18.3438C14.7344 19.1719 15.1875 19.625 16 19.625ZM16 24.8594C16.9375 24.8594 17.75 24.125 17.75 23.1875C17.75 22.25 16.9531 21.5 16 21.5C15.0469 21.5 14.25 22.2656 14.25 23.1875C14.25 24.1094 15.0625 24.8594 16 24.8594Z" fill="#FF453A"/>
</svg>
